<?xml version="1.0" encoding="UTF-8" standalone="no"?>
<svg
   xmlns:dc="http://purl.org/dc/elements/1.1/"
   xmlns:cc="http://creativecommons.org/ns#"
   xmlns:rdf="http://www.w3.org/1999/02/22-rdf-syntax-ns#"
   xmlns:svg="http://www.w3.org/2000/svg"
   xmlns="http://www.w3.org/2000/svg"
   xmlns:sodipodi="http://sodipodi.sourceforge.net/DTD/sodipodi-0.dtd"
   xmlns:inkscape="http://www.inkscape.org/namespaces/inkscape"
   class="logo"
   width="65"
   height="15"
   viewBox="0 0 65 15"
   version="1.1"
   id="svg3795"
   sodipodi:docname="logo.svg"
   inkscape:version="0.92.3 (2405546, 2018-03-11)">
  <metadata
     id="metadata3801">
    <rdf:RDF>
      <cc:Work
         rdf:about="">
        <dc:format>image/svg+xml</dc:format>
        <dc:type
           rdf:resource="http://purl.org/dc/dcmitype/StillImage" />
      </cc:Work>
    </rdf:RDF>
  </metadata>
  <defs
     id="defs3799">
    <inkscape:perspective
       sodipodi:type="inkscape:persp3d"
       inkscape:vp_x="28.068683 : -2.7966251 : 1"
       inkscape:vp_y="0 : 1048.7365 : 0"
       inkscape:vp_z="-33.429733 : -2.7966251 : 1"
       inkscape:persp3d-origin="-2.6805256 : -5.4184662 : 1"
       id="perspective3931" />
    <inkscape:perspective
       sodipodi:type="inkscape:persp3d"
       inkscape:vp_x="-0.11555556 : 0.33555556 : 1"
       inkscape:vp_y="0 : 1000 : 0"
       inkscape:vp_z="64.884444 : 0.33555556 : 1"
       inkscape:persp3d-origin="32.384444 : -2.1644444 : 1"
       id="perspective3901" />
  </defs>
  <sodipodi:namedview
     pagecolor="#ffffff"
     bordercolor="#666666"
     borderopacity="1"
     objecttolerance="10"
     gridtolerance="10"
     guidetolerance="10"
     inkscape:pageopacity="0"
     inkscape:pageshadow="2"
     inkscape:window-width="1280"
     inkscape:window-height="715"
     id="namedview3797"
     showgrid="false"
     inkscape:snap-text-baseline="true"
     inkscape:zoom="6.1191933"
     inkscape:cx="19.059468"
     inkscape:cy="9.8843339"
     inkscape:window-x="-8"
     inkscape:window-y="-8"
     inkscape:window-maximized="1"
     inkscape:current-layer="svg3795" />
  <path
     style="fill:#000000;stroke-width:0.23111111"
     d="m 23.065231,10.062565 c 0.475971,-0.4037283 0.523354,-0.6983733 0.668116,-4.1546323 l 0.155811,-3.720086 -0.55256,-0.178131 c -0.556802,-0.179498 -0.365326,-0.21678 3.491885,-0.679884 l 1.04,-0.124864 -0.635739,0.522576 -0.63574,0.522576 0.576703,2.995616 c 0.317186,1.647589 0.577269,3.023369 0.577961,3.057288 6.94e-4,0.03392 0.525009,-0.203733 1.165147,-0.528116 0.640139,-0.324382 1.353353,-0.901337 1.584922,-1.282121 l 0.421033,-0.692334 0.282218,1.798227 c 0.155219,0.989026 0.343255,2.058228 0.417858,2.376006 0.121353,0.5169163 0.09517,0.5444333 -0.248591,0.2612303 -0.384953,-0.3171433 -1.984826,-0.2897153 -7.087994,0.121516 -1.717206,0.138378 -1.728567,0.135635 -1.22103,-0.294867 z"
     id="path6626"
     inkscape:connector-curvature="0" />
  <path
     style="fill:#000000;stroke-width:0.23111111"
     d="m 15.498041,14.652297 -1.31676,-0.385631 0.495416,-0.866484 0.495416,-0.866484 0.622224,0.596129 c 0.876529,0.839767 2.214226,0.986248 3.042687,0.333182 0.534177,-0.421086 0.635556,-0.676507 0.635556,-1.601264 0,-0.605145 -0.06697,-1.16723 -0.148814,-1.249078 -0.08185,-0.08185 -0.495624,0.15569 -0.919503,0.52786 -2.017491,1.771381 -4.940572,0.725602 -4.940572,-1.7675683 0,-0.971571 0.654677,-2.65451 1.152253,-2.962029 0.407699,-0.251972 0.254132,-0.578761 -0.285587,-0.607723 -0.286,-0.01535 0.08893,-0.125749 0.833184,-0.245336 0.74425,-0.119587 1.395615,-0.174998 1.447478,-0.123136 0.05186,0.05186 -0.06646,0.479034 -0.262936,0.949269 -0.299344,0.716431 -0.308847,0.956243 -0.05865,1.479929 0.664705,1.391271 2.155685,0.552646 2.107746,-1.185534 -0.03033,-1.099545 0.173196,-1.302432 1.306509,-1.302432 0.560223,0 0.70929,0.06306 0.484903,0.205125 -0.270363,0.171175 -0.227232,0.467036 0.260598,1.787572 0.79527,2.152766 0.95663,3.2997883 0.633187,4.5009673 -0.375822,1.395696 -1.052811,2.260591 -2.164713,2.765557 -1.14149,0.518402 -1.698419,0.521188 -3.419625,0.01711 z"
     id="path6628"
     inkscape:connector-curvature="0" />
  <path
     style="fill:#000000;stroke-width:0.23111111"
     d="M 3.312927,11.494647 C 3.763689,11.232102 3.8225261,9.9571617 3.522075,6.9625667 3.341301,5.1607937 3.413154,5.0537717 4.8093711,5.0452037 c 0.457225,-0.0028 0.497589,0.0801 0.364152,0.747955 l -0.15007,0.751111 0.751404,-0.751111 c 1.053772,-1.053362 1.953649,-1.02984 2.60139,0.068 l 0.483287,0.819111 0.364979,-0.530222 c 0.8602859,-1.249774 2.0110129,-1.468632 2.9236029,-0.556043 0.996708,0.996708 1.055338,3.021702 0.138422,4.7808453 -0.435336,0.835211 -0.439731,0.907515 -0.06833,1.123999 0.302135,0.176108 0.110424,0.233045 -0.802689,0.238394 l -1.199628,0.007 0.331537,-0.635555 c 0.626777,-1.2014953 0.315848,-2.3688613 -0.6309509,-2.3688613 -0.564269,0 -1.192612,1.029661 -1.058015,1.7337613 0.103225,0.539985 0.04888,0.57736 -0.839806,0.577501 -0.938306,1.5e-4 -0.950174,-0.01032 -0.950174,-0.83858 0,-0.9988793 -0.566291,-1.5102193 -1.213333,-1.0955953 -0.30139,0.193131 -0.40193,0.56088 -0.394577,1.4432623 l 0.0099,1.184095 -1.280978,-0.007 C 3.206664,11.731871 3.00265,11.675411 3.312959,11.494676 Z"
     id="path6630"
     inkscape:connector-curvature="0" />
  <path
     style="fill:#000000;stroke-width:0.23111111"
     d="M 35.056424,10.451796 C 33.143722,9.7741967 31.779259,7.4878307 32.056048,5.4242097 c 0.360499,-2.68772 3.954801,-4.85005004 6.792009,-4.086069 1.726794,0.464977 3.045483,2.000519 3.416528,3.978361 0.395887,2.110261 -1.225246,4.447056 -3.567701,5.1426903 -1.510981,0.448713 -2.357827,0.446993 -3.64046,-0.0074 z m 4.893225,-5.6244903 c 0.341955,-0.377856 0.3249,-0.462495 -0.224845,-1.11583 -0.733278,-0.871451 -2.151194,-1.413822 -2.452551,-0.938133 -0.110062,0.173731 -0.201705,0.637756 -0.203651,1.031167 -0.0072,1.462874 1.877316,2.131906 2.881047,1.022796 z"
     id="path6632"
     inkscape:connector-curvature="0" />
  <path
     style="fill:#000000;stroke-width:0.23111111"
     d="m 46.293724,10.526871 c -0.722216,-0.286312 -1.558107,-0.8703053 -2.123229,-1.4833903 -2.186844,-2.372445 -1.689585,-5.395557 1.140888,-6.936093 1.608374,-0.875387 4.481954,-1.103663 6.102482,-0.484778 0.565929,0.21613 1.122153,0.335369 1.236054,0.264974 0.184591,-0.114084 0.487935,1.063896 0.494648,1.920874 0.0021,0.267307 -0.06895,0.26202 -0.401901,-0.02991 -1.789953,-1.56943 -4.604041,-1.428129 -5.484977,0.275412 -0.46173,0.892888 -0.455926,2.989869 0.01012,3.655239 0.444197,0.634181 1.510227,1.20566 2.249022,1.20566 0.441357,0 0.60659,-0.17996 0.820366,-0.893481 0.147232,-0.491413 0.267694,-0.959413 0.267694,-1.04 0,-0.261658 -1.28614,-0.154602 -1.571556,0.130814 -0.215704,0.215704 -0.277333,-0.04737 -0.277333,-1.183854 0,-1.139586 0.06358,-1.409722 0.288889,-1.227356 0.158888,0.128608 1.256606,0.308835 2.439372,0.400506 2.0407,0.158166 2.131523,0.187625 1.77909,0.577058 -0.304923,0.336936 -0.343165,0.721882 -0.213676,2.150848 l 0.157717,1.740464 -1.243474,0.6330323 c -1.691336,0.861032 -3.984918,0.99208 -5.670194,0.323979 z"
     id="path6634"
     inkscape:connector-curvature="0" />
  <path
     style="fill:#000000;stroke-width:0.23111111"
     d="M 57.281446,10.363992 C 56.837863,10.22273 56.038357,9.6705787 55.504767,9.1369877 53.2005,6.8327207 53.778916,3.4435227 56.752329,1.8269647 c 3.493791,-1.89947204 6.993237,-0.284242 7.599597,3.507724 0.522918,3.270148 -3.533653,6.1556283 -7.07048,5.0293033 z m 4.760999,-5.7331433 c 0.382085,-0.4222 0.370696,-0.472408 -0.255403,-1.125915 -0.360427,-0.376204 -1.014524,-0.802556 -1.45355,-0.947447 -0.933455,-0.308068 -1.196278,-0.07113 -1.201991,1.083602 -0.0074,1.487803 1.879591,2.129393 2.910944,0.98976 z"
     id="path6636"
     inkscape:connector-curvature="0" />
  <flowRoot
     xml:space="preserve"
     id="flowRoot6640"
     style="fill:black;fill-opacity:1;stroke:none;font-family:sans-serif;font-style:normal;font-weight:normal;font-size:13.33333333px;line-height:0px;letter-spacing:0px;word-spacing:0px"><flowRegion
       id="flowRegion6642"><rect
         id="rect6644"
         width="79.73333"
         height="15.253333"
         x="-26.577778"
         y="-27.986666" /></flowRegion><flowPara
       id="flowPara6646"></flowPara></flowRoot></svg>
