<?xml version="1.0" encoding="UTF-8" standalone="no"?>
<!-- Generator: Adobe Illustrator 20.1.0, SVG Export Plug-In . SVG Version: 6.00 Build 0)  -->

<svg
   xmlns:dc="http://purl.org/dc/elements/1.1/"
   xmlns:cc="http://creativecommons.org/ns#"
   xmlns:rdf="http://www.w3.org/1999/02/22-rdf-syntax-ns#"
   xmlns:svg="http://www.w3.org/2000/svg"
   xmlns="http://www.w3.org/2000/svg"
   xmlns:xlink="http://www.w3.org/1999/xlink"
   xmlns:sodipodi="http://sodipodi.sourceforge.net/DTD/sodipodi-0.dtd"
   xmlns:inkscape="http://www.inkscape.org/namespaces/inkscape"
   version="1.1"
   id="Layer_2"
   x="0px"
   y="0px"
   width="32px"
   height="32px"
   viewBox="0 0 32 32"
   enable-background="new 0 0 32 32"
   xml:space="preserve"
   sodipodi:docname="ok.svg"
   inkscape:version="0.92.3 (2405546, 2018-03-11)"><metadata
   id="metadata6745"><rdf:RDF><cc:Work
       rdf:about=""><dc:format>image/svg+xml</dc:format><dc:type
         rdf:resource="http://purl.org/dc/dcmitype/StillImage" /></cc:Work></rdf:RDF></metadata><defs
   id="defs6743" /><sodipodi:namedview
   pagecolor="#ffffff"
   bordercolor="#666666"
   borderopacity="1"
   objecttolerance="10"
   gridtolerance="10"
   guidetolerance="10"
   inkscape:pageopacity="0"
   inkscape:pageshadow="2"
   inkscape:window-width="1280"
   inkscape:window-height="715"
   id="namedview6741"
   showgrid="false"
   inkscape:zoom="5.2149125"
   inkscape:cx="24.148778"
   inkscape:cy="4.8121577"
   inkscape:window-x="-8"
   inkscape:window-y="-8"
   inkscape:window-maximized="1"
   inkscape:current-layer="Layer_2" />

<path
   style="fill:none;stroke:#000000;stroke-width:1px;stroke-linecap:butt;stroke-linejoin:miter;stroke-opacity:1"
   d="m 5.6949153,15.322034 c 3.9784011,3.614819 9.0847457,10.983051 9.0847457,10.983051 L 29.016949,6.1016949 26.305085,4.3389831 15.050847,24.271186 5.9661017,11.254237 Z"
   id="path6773"
   inkscape:connector-curvature="0" /><path
   style="fill:#00ff00;stroke-width:0.09587888"
   d=""
   id="path6775"
   inkscape:connector-curvature="0" /><path
   style="fill:#00ff00;stroke-width:0.09587888"
   d="M 13.740468,23.928976 C 11.466734,20.842523 9.1629235,18.051021 7.2806203,16.101649 l -1.0032111,-1.038957 0.027888,-0.735979 c 0.015338,-0.404789 0.058269,-0.884527 0.095401,-1.066085 0.066049,-0.322941 0.1581198,-0.200147 4.2423388,5.65797 2.296153,3.293441 4.201127,6.033281 4.233274,6.088532 0.03215,0.05525 0.02498,0.154606 -0.01592,0.220789 -0.04946,0.08003 -0.424555,-0.355022 -1.119924,-1.298943 z"
   id="path6777"
   inkscape:connector-curvature="0" /><path
   style="fill:#00ff00;stroke-width:0.09587888"
   d="M 13.649751,25.508084 C 11.135756,22.014845 8.6365956,18.951586 6.5677841,16.827604 L 5.2352525,15.459538 5.4172375,12.697913 5.5992224,9.9362885 10.249348,16.599015 c 2.55757,3.6645 4.693272,6.675163 4.746005,6.690363 0.05273,0.0152 0.680882,-1.016919 1.395886,-2.293598 5.192293,-9.271127 9.738898,-17.2317709 9.828813,-17.209252 0.300753,0.075324 3.383033,2.1511817 3.347994,2.254811 -0.03507,0.1037207 -14.19007,20.240187 -14.627794,20.809049 l -0.167665,0.217896 z m 1.32746,-0.278386 C 15.047331,25.118535 14.080026,23.666971 10.827999,19.003277 8.4956425,15.658471 6.5268175,12.858635 6.4528325,12.781418 6.3362206,12.659713 6.3171151,12.685239 6.309307,12.973176 6.304357,13.15586 6.269528,13.71521 6.231917,14.216177 l -0.068383,0.91085 1.1255656,1.150546 c 1.8478251,1.888837 4.4254594,5.018335 6.5345224,7.933543 0.486251,0.672112 0.924157,1.208863 0.973123,1.19278 0.04896,-0.01608 0.130175,-0.09447 0.180466,-0.174198 z M 22.13656,15.085085 28.380295,6.2222843 27.444382,5.618014 C 26.929629,5.2856653 26.475789,5.0464223 26.435849,5.0863629 26.339841,5.1823714 15.714445,23.998802 15.714445,24.072814 c 0,0.1212 0.354227,-0.374539 6.422115,-8.987729 z"
   id="path6779"
   inkscape:connector-curvature="0" /><path
   style="fill:#00ff00;stroke-width:0.09587888"
   d="m 16.769113,22.41721 c 0,-0.04208 0.211347,-0.448368 0.46966,-0.902859 0.258314,-0.454492 2.441857,-4.321134 4.852318,-8.592539 2.410461,-4.2714039 4.390457,-7.7750889 4.39999,-7.7859662 0.03426,-0.039094 1.684003,1.0759273 1.685791,1.1393862 0.0015,0.053656 -11.234,16.044729 -11.365848,16.176578 -0.02305,0.02305 -0.04191,0.0075 -0.04191,-0.0346 z"
   id="path6781"
   inkscape:connector-curvature="0" /><path
   style="fill:#00ff00;stroke-width:0.09587888"
   d="m 17.270326,21.598852 c 0.04408,-0.126692 9.160566,-16.3000766 9.23183,-16.378019 0.04055,-0.044346 1.575932,0.9776872 1.578506,1.0507371 0.0035,0.099627 -10.528572,15.1453899 -10.762704,15.3752209 -0.06572,0.06451 -0.0813,0.04883 -0.04763,-0.04794 z"
   id="path6783"
   inkscape:connector-curvature="0" /><path
   style="fill:#00ff00;stroke-width:0.09587888"
   d="m 17.272474,21.592736 c 0.02871,-0.08246 1.853219,-3.339947 4.054477,-7.238855 4.87268,-8.6305817 5.134857,-9.0932328 5.178204,-9.1377472 0.04943,-0.050756 1.575998,0.9800738 1.576908,1.0648182 0.0011,0.1035571 -10.530904,15.138939 -10.763495,15.365839 -0.0664,0.06477 -0.08135,0.04724 -0.04609,-0.05406 z"
   id="path6785"
   inkscape:connector-curvature="0" /><path
   style="fill:#00ff00;stroke-width:0.00599243"
   d="m 14.749291,25.370084 c -0.02528,-0.0211 -0.06572,-0.0722 -0.148204,-0.187264 -0.831115,-1.159446 -1.804088,-2.461572 -2.681707,-3.588915 l -0.151612,-0.194754 0.02231,-0.0019 c 0.01227,-0.001 0.02306,-0.001 0.02396,0 9.07e-4,10e-4 0.05,0.06392 0.109105,0.139722 0.615184,0.789056 1.138968,1.479403 1.784543,2.352029 0.69647,0.94142 1.046337,1.357236 1.133578,1.347254 0.01407,-0.0016 0.0201,-0.008 0.0343,-0.03642 0.01381,-0.02762 0.01783,-0.04499 0.02025,-0.08744 0.002,-0.03458 3.74e-4,-0.06099 -0.0046,-0.07607 -0.0042,-0.0127 -0.03336,-0.06099 -0.06483,-0.107312 -0.11289,-0.166196 -1.045231,-1.509307 -1.938663,-2.792795 l -0.513072,-0.737069 0.02752,-0.0019 c 0.01513,-0.001 0.02829,-0.001 0.02924,0 0.01374,0.01479 2.048487,2.936272 2.094342,3.007057 0.08704,0.134357 0.201524,0.318059 0.272621,0.437447 0.06857,0.115147 0.164825,0.300751 0.164825,0.317831 0,0.01727 -0.156558,0.238903 -0.168975,0.239212 -0.0056,1.39e-4 -0.02582,-0.0128 -0.04494,-0.02876 z"
   id="path6787"
   inkscape:connector-curvature="0" /><path
   style="fill:#00ff00;stroke-width:0.00599243"
   d="m 14.566781,25.172882 c -0.201479,-0.237954 -0.4523,-0.565046 -0.796104,-1.038187 -0.638523,-0.87873 -1.275264,-1.722125 -1.94875,-2.581214 -0.06523,-0.08321 -0.1186,-0.152791 -0.1186,-0.154634 0,-0.0018 0.01273,-0.0025 0.02828,-0.0015 l 0.02828,0.0018 0.160962,0.206739 c 0.776924,0.997877 1.612588,2.111159 2.375,3.164003 0.255508,0.35284 0.350665,0.48648 0.348172,0.488974 -0.0013,0.0013 -0.03608,-0.03737 -0.07724,-0.08598 z"
   id="path6789"
   inkscape:connector-curvature="0" /><use
   id="use6791"
   inkscape:spray-origin="#path6789"
   xlink:href="#path6789"
   x="0"
   y="0"
   width="100%"
   height="100%"
   transform="translate(1.3951779,-0.54181474)" /><path
   style="fill:#00ff00"
   id="path7057"
   d="m 6.5718896,14.85514 c 0.1577079,0.142722 0.3402669,0.253906 0.5265856,0.354996 0.1573646,0.08324 0.2950177,0.197717 0.4463261,0.289853 0.1474809,0.104806 0.3006042,0.200476 0.4424934,0.313054 0.1395457,0.09885 0.2457316,0.235264 0.3627825,0.358351 0.1422652,0.152053 0.2995406,0.288564 0.4550747,0.426643 0.147563,0.122921 0.3007899,0.238575 0.4488548,0.360865 0.1226972,0.09622 0.2527145,0.181121 0.3746074,0.278252 0.1039921,0.08602 0.1953894,0.185834 0.3034852,0.266978 0.1294077,0.102633 0.2548667,0.210616 0.3728727,0.326219 0.113322,0.123189 0.219652,0.252601 0.325731,0.382003 0.08564,0.106875 0.155831,0.223603 0.224164,0.341958 0.07062,0.125744 0.119532,0.263093 0.163878,0.400004 0.04858,0.139996 0.06926,0.287049 0.106105,0.43007 0.05088,0.21788 0.177592,0.402164 0.312941,0.575973 0.150803,0.185905 0.332603,0.342417 0.503077,0.509384 0.07712,0.07274 0.15639,0.141035 0.247192,0.195886 0.09684,0.0769 0.139979,0.18526 0.180744,0.297723 0.01887,0.0583 0.04098,0.116547 0.05126,0.177261 0.0025,0.01501 0.0174,0.03719 0.0046,0.04542 -0.817667,0.526364 -0.603133,0.709137 -0.87291,0.446883 -0.111705,-0.08238 -0.220714,-0.168847 -0.328389,-0.256584 -0.115119,-0.09083 -0.221637,-0.193125 -0.329519,-0.292709 -0.138464,-0.123065 -0.250296,-0.272802 -0.362278,-0.419536 -0.09038,-0.123846 -0.192275,-0.23825 -0.305363,-0.341577 -0.06287,-0.06512 -0.129964,-0.125164 -0.188598,-0.19426 C 9.9499665,19.994981 9.8417947,19.877582 9.7396085,19.755736 9.6212251,19.631408 9.5030655,19.506585 9.3951843,19.372901 9.2946981,19.242078 9.1731961,19.128743 9.0547634,19.014409 8.9499734,18.914384 8.8577403,18.803822 8.7683283,18.690123 8.6775672,18.57636 8.5786987,18.469658 8.4794501,18.363001 8.3920842,18.274365 8.3241,18.17185 8.252284,18.070963 8.1973815,17.983098 8.1322501,17.903153 8.0657999,17.824159 8.0119176,17.746561 7.9441535,17.680787 7.8842235,17.608166 7.8263057,17.524072 7.7450415,17.504301 7.6791329,17.42985 c -0.064899,-0.0884 -0.081838,-0.194441 -0.091376,-0.300805 -0.010561,-0.08941 0.00252,-0.172381 0.058065,-0.244228 0.2229755,-0.288636 0.5805708,-0.527519 0.9478196,-0.542076 0,0 -0.7522816,0.571962 -0.7522816,0.571962 v 0 c -0.3988308,0.174699 1.0793849,-0.618833 0.6769034,-0.404007 -0.046515,0.05936 -0.1066806,0.09578 -0.091286,0.183099 0.00447,0.08406 0.0081,0.172872 0.059854,0.243239 0.068426,0.06234 0.1553278,0.103532 0.2074731,0.184256 0.061489,0.07155 0.1276425,0.138789 0.1826842,0.215746 0.067247,0.08124 0.1300865,0.165572 0.1860938,0.255112 0.069972,0.09692 0.1378234,0.195061 0.2185211,0.283672 0.1001693,0.109305 0.2008337,0.218012 0.294864,0.33253 0.085822,0.110502 0.1759265,0.216899 0.2740261,0.316827 0.1209059,0.1181 0.2481714,0.231277 0.3504344,0.366628 0.10455,0.134417 0.22296,0.256951 0.336011,0.384098 0.104284,0.120756 0.21498,0.235917 0.311984,0.362837 0.05802,0.06484 0.120269,0.125594 0.179789,0.18904 0.112145,0.110065 0.20869,0.234508 0.303284,0.359695 0.110678,0.141206 0.22035,0.285663 0.357397,0.402708 0.109813,0.0958 0.215333,0.196356 0.328049,0.288676 0.104428,0.08611 0.211449,0.170842 0.331155,0.234968 0.175389,-0.273538 0.0281,-0.03975 -0.788997,0.469421 -0.0069,0.0043 0.02082,0.0068 0.02446,-5.36e-4 0.0064,-0.01288 -1.81e-4,-0.02892 -0.0027,-0.0431 -0.0059,-0.03332 -0.02478,-0.0882 -0.03496,-0.119864 -0.03524,-0.09349 -0.06799,-0.186452 -0.156679,-0.243008 -0.08957,-0.065 -0.170779,-0.137968 -0.246145,-0.219223 C 10.977538,20.78284 10.801714,20.617064 10.64752,20.4315 10.50405,20.248801 10.363107,20.059064 10.299883,19.831755 10.262293,19.69101 10.240923,19.546412 10.197081,19.407316 10.151181,19.277389 10.111441,19.143113 10.039687,19.024592 9.9745602,18.910049 9.9064753,18.79827 9.8255278,18.694017 9.7241127,18.566086 9.6213579,18.439076 9.5091373,18.320319 9.3909471,18.209375 9.2675102,18.104306 9.1394926,18.00481 9.0314793,17.922014 8.9371353,17.824043 8.8320935,17.737746 8.7109581,17.641442 8.5846721,17.552109 8.465331,17.45344 8.3142236,17.332645 8.1594245,17.216257 8.0139798,17.08852 7.8590564,16.946692 7.6990363,16.810098 7.5550101,16.656857 7.4381888,16.538354 7.3296286,16.410604 7.1951544,16.311086 7.0561663,16.200954 6.9055436,16.106637 6.7598781,16.005786 6.6123318,15.911207 6.4711552,15.806768 6.3210429,15.716014 6.1318206,15.604747 5.9453731,15.488414 5.7694204,15.356957 c 0,0 0.8024692,-0.501817 0.8024692,-0.501817 z"
   inkscape:connector-curvature="0" /><path
   style="fill:#00ff00"
   id="path7059"
   d="M 8.3979351,16.888401 C 8.4038419,16.736535 8.3415502,16.60541 8.2728302,16.474177 8.16084,16.273255 8.0234804,16.087695 7.8905087,15.900337 7.8082575,15.805854 7.737556,15.700886 7.6445605,15.616381 7.5650584,15.519108 7.4872409,15.421186 7.4063524,15.32517 7.309979,15.206607 7.2128429,15.089371 7.1294637,14.961291 7.0442127,14.856262 6.9646175,14.748444 6.8886873,14.636375 6.782283,14.473113 6.6779452,14.308486 6.575323,14.142812 6.4912107,14.018902 6.423823,13.883328 6.3326422,13.764395 6.2535295,13.655051 6.1934747,13.535906 6.1325076,13.416112 6.0710856,13.280356 6.0113132,13.143969 5.9632642,13.002842 5.9435285,12.9549 5.8855811,12.81218 5.8470398,12.930495 c 0.2615675,-0.149811 0.5223381,-0.301021 0.7847025,-0.449431 0.011094,-0.0063 -0.021429,0.01407 -0.030636,0.02288 -0.011143,0.01067 -0.020601,0.023 -0.030039,0.0352 -0.04141,0.05354 -0.067869,0.1093 -0.094154,0.171287 -0.075765,0.199627 -0.093141,0.41412 -0.1075654,0.625302 -0.010699,0.190926 -0.010584,0.38222 -0.00898,0.573368 0.00167,0.122842 0.00364,0.245678 0.00466,0.368527 7.817e-4,0.09478 -0.00343,0.189241 0.01074,0.283174 0.015829,0.09701 0.044386,0.191873 0.079153,0.283685 0.038938,0.08719 0.056243,0.19231 0.1268011,0.261031 0.1206709,0.124221 0.2970475,0.175934 0.4558504,0.230861 0.3659546,0.09331 0.727478,0.15169 1.0847907,0.278103 0.1964118,0.07135 0.385014,0.16226 0.5626749,0.272061 0.081921,0.04641 0.041396,0.02544 0.1212955,0.06344 0,0 -0.7864819,0.515964 -0.7864819,0.515964 v 0 C 7.9392779,16.421033 7.9799286,16.444741 7.8980159,16.394629 7.7272834,16.290542 7.5495957,16.196151 7.3608812,16.128799 7.0108818,16.002692 6.6463826,15.933754 6.2851375,15.848016 6.1049969,15.793866 5.9025461,15.740338 5.7708162,15.59579 5.7018328,15.510273 5.6706474,15.406191 5.6319944,15.304671 c -0.041675,-0.09624 -0.071983,-0.197795 -0.091476,-0.30079 -0.017869,-0.09885 -0.021203,-0.196734 -0.017004,-0.297255 5.1e-4,-0.124248 0.00153,-0.248493 0.00299,-0.372734 0.00192,-0.194022 0.00274,-0.388149 0.012597,-0.581975 0.01371,-0.216021 0.031013,-0.434808 0.08721,-0.644388 0.1402423,-0.465303 0.4190052,-0.488197 0.966153,-0.767865 0.1057648,0.02174 0.1626073,0.112446 0.1946958,0.210305 0.042336,0.137841 0.1012606,0.269418 0.1603519,0.400773 0.05989,0.114782 0.1204861,0.228174 0.1952075,0.334286 0.087383,0.124899 0.1580835,0.260815 0.2409868,0.388735 0.098349,0.165722 0.1993534,0.330199 0.3091549,0.488644 0.080767,0.110454 0.1713037,0.211682 0.2487734,0.324484 0.080206,0.124799 0.170097,0.242785 0.2684149,0.353995 0.081051,0.09228 0.1590703,0.186907 0.2377731,0.281126 0.092445,0.09347 0.1703326,0.199029 0.2476433,0.305118 0.1287281,0.193465 0.2591829,0.385873 0.3777282,0.585868 0.020774,0.03417 0.1001143,0.161315 0.1193906,0.204601 0.033194,0.07454 0.031598,0.161827 0.051198,0.239823 0,0 -0.8458448,0.430979 -0.8458448,0.430979 z"
   inkscape:connector-curvature="0" /><path
   style="fill:#00ff00"
   id="path7061"
   d="m 9.3946198,16.275954 c 0.050579,0.204002 0.1200509,0.402142 0.1952239,0.598182 0.047501,0.126516 0.1095458,0.246829 0.1638274,0.370538 0.064504,0.151941 0.1099065,0.310668 0.1677599,0.465139 0.09476,0.263095 0.20339,0.521647 0.337363,0.767304 0.06013,0.119224 0.136382,0.226479 0.231218,0.319859 0.129282,0.08973 0.245286,0.196076 0.364113,0.298942 0.274425,0.243914 0.554479,0.481407 0.831548,0.722328 0.231156,0.204841 0.484834,0.381693 0.725878,0.573925 0.103303,0.07307 0.205945,0.147255 0.309881,0.219252 0.07885,0.04747 0.143909,0.110163 0.208425,0.175323 0.09859,0.102321 0.204181,0.196437 0.297022,0.304325 0.09347,0.09567 0.178022,0.199401 0.256676,0.307413 0.05022,0.07495 0.09868,0.153293 0.162076,0.218013 0.05389,0.05784 0.103949,0.119253 0.155979,0.17907 0.07056,0.08061 0.146539,0.15189 0.199958,0.246363 0.06736,0.108016 0.106148,0.230742 0.155943,0.34736 0.05365,0.125737 0.09553,0.255966 0.143204,0.384013 0.03564,0.101581 0.06781,0.205715 0.119469,0.300548 0.04778,0.08233 0.08932,0.167422 0.138269,0.249029 0.06255,0.09694 0.129583,0.191325 0.208293,0.275849 0.07453,0.08804 0.162272,0.162585 0.238361,0.249465 0.08452,0.103532 0.163326,0.212988 0.235962,0.325384 0.08402,0.129443 0.134768,0.275715 0.186551,0.420052 0.04001,0.107635 0.08434,0.212957 0.122009,0.321539 0.03812,0.08914 0.04581,0.185683 0.06538,0.279304 0.09641,0.376753 0.253666,0.01619 -0.824149,0.522832 -0.01398,0.0066 -0.0177,-0.02535 -0.02712,-0.0376 -0.01238,-0.01611 -0.02549,-0.03163 -0.03824,-0.04745 -0.132126,-0.124624 -0.26742,-0.245755 -0.397307,-0.373146 -0.104822,-0.105294 -0.19267,-0.224469 -0.28112,-0.343214 -0.06384,-0.09286 -0.139116,-0.175218 -0.217937,-0.255368 -0.08053,-0.0712 -0.170718,-0.127066 -0.244312,-0.206116 -0.134375,-0.13924 -0.246047,-0.299358 -0.361205,-0.454622 -0.142558,-0.183896 -0.265932,-0.381784 -0.406019,-0.567472 -0.05979,-0.07935 -0.118678,-0.162451 -0.192343,-0.229763 -0.04656,-0.06094 -0.106502,-0.108651 -0.158469,-0.164391 -0.05877,-0.05711 -0.114687,-0.117502 -0.171455,-0.176847 -0.07024,-0.06567 -0.149617,-0.11909 -0.225734,-0.177369 -0.08471,-0.07412 -0.162691,-0.15507 -0.239015,-0.237727 -0.07995,-0.09058 -0.161579,-0.180292 -0.229066,-0.280807 -0.04987,-0.09017 -0.08388,-0.188584 -0.108055,-0.288522 -0.0071,-0.06506 -0.03282,-0.137111 -0.01768,-0.20312 0.0048,-0.02099 0.01584,-0.04005 0.02375,-0.06008 0,0 0.868569,-0.371622 0.868569,-0.371622 v 0 c -0.0132,0.0067 -0.02864,0.01007 -0.03961,0.01998 -0.04131,0.03733 -0.0013,0.121432 -0.0023,0.167125 0.01835,0.08976 0.04875,0.176948 0.09024,0.258618 0.06368,0.09596 0.139489,0.184021 0.217609,0.268363 0.07594,0.07612 0.150416,0.154022 0.232893,0.223168 0.08153,0.0592 0.164252,0.11737 0.236001,0.188628 0.05804,0.05863 0.114288,0.118883 0.173531,0.176276 0.05327,0.05355 0.108966,0.104782 0.15758,0.162776 0.07119,0.07671 0.132984,0.161718 0.18881,0.250152 0.128996,0.192138 0.249856,0.39038 0.395304,0.570966 0.115248,0.151204 0.233797,0.301783 0.370769,0.433951 0.07808,0.07303 0.169152,0.130063 0.24461,0.206252 0.08226,0.08315 0.157105,0.171219 0.223455,0.267704 0.0844,0.115224 0.166598,0.232107 0.265879,0.335486 0.131323,0.131049 0.272851,0.249275 0.409221,0.374574 0.0141,0.01531 0.02797,0.03085 0.04231,0.04593 0.01061,0.01116 0.04546,0.02439 0.03255,0.03278 -1.416451,0.919774 -0.736928,0.748503 -0.825937,0.418444 -0.02182,-0.08962 -0.02143,-0.184334 -0.05849,-0.270583 -0.0389,-0.107905 -0.07486,-0.216833 -0.115838,-0.324044 -0.05047,-0.137023 -0.09263,-0.279294 -0.176315,-0.400812 -0.07186,-0.107764 -0.147897,-0.213618 -0.232401,-0.311785 -0.07685,-0.08597 -0.164841,-0.160538 -0.238844,-0.249138 -0.07806,-0.0923 -0.151071,-0.189228 -0.217687,-0.290114 -0.05051,-0.08285 -0.09504,-0.168152 -0.141706,-0.253247 -0.05166,-0.09988 -0.08908,-0.206735 -0.122367,-0.313974 -0.04481,-0.126956 -0.08784,-0.254676 -0.138316,-0.379497 -0.05106,-0.112376 -0.08881,-0.231366 -0.154891,-0.336282 -0.05152,-0.08719 -0.126751,-0.152026 -0.191332,-0.228889 -0.0534,-0.05835 -0.106216,-0.117345 -0.15826,-0.176844 -0.06097,-0.0715 -0.112707,-0.150159 -0.162304,-0.22985 -0.07636,-0.105639 -0.15813,-0.207326 -0.247213,-0.302617 -0.09435,-0.10404 -0.199256,-0.196705 -0.300009,-0.294375 -0.06368,-0.06013 -0.130657,-0.114721 -0.203882,-0.162969 -0.09881,-0.07786 -0.200916,-0.151512 -0.297007,-0.232765 C 11.389883,20.688104 11.15039,20.496829 10.919707,20.295163 10.641014,20.0543 10.357389,19.819141 10.071851,19.586468 9.9425209,19.487805 9.8121195,19.390482 9.6844431,19.290152 9.5851228,19.187752 9.5138252,19.066141 9.4547192,18.936445 9.3300227,18.682862 9.2198439,18.422013 9.1130002,18.1605 9.0512967,18.009589 8.992591,17.857473 8.9301261,17.706947 8.8779243,17.580352 8.8203319,17.455712 8.776906,17.325695 8.7058477,17.13095 8.6408942,16.934025 8.5691382,16.739569 c 0,0 0.8254816,-0.463615 0.8254816,-0.463615 z"
   inkscape:connector-curvature="0" /><path
   style="fill:#00ff00"
   id="path7063"
   d="m 15.63945,23.878679 c 0.06283,-0.06904 0.137864,-0.124818 0.2109,-0.18238 0.155012,-0.130761 0.270222,-0.299216 0.376445,-0.470035 0.08118,-0.137003 0.15398,-0.280076 0.198972,-0.433226 0.01688,-0.06712 0.0297,-0.135059 0.04272,-0.20298 0.01157,-0.06307 0.04062,-0.120306 0.06764,-0.177785 0.03058,-0.05656 0.06775,-0.108967 0.09722,-0.166181 0.02975,-0.06377 0.06011,-0.126843 0.09474,-0.188119 0.03144,-0.06668 0.07418,-0.125415 0.121316,-0.181727 0.09348,-0.09979 0.198229,-0.188069 0.299223,-0.280001 0.04369,-0.03931 0.08757,-0.07846 0.130731,-0.118356 0.01061,-0.0098 0.02124,-0.0196 0.03152,-0.02975 0.0034,-0.0034 0.0052,-0.009 0.0096,-0.01088 0.139655,-0.05689 0.280899,-0.109793 0.421349,-0.164689 -0.08166,0.0977 -0.182391,0.176524 -0.280498,0.25672 -0.108416,0.08697 -0.211674,0.18006 -0.296398,0.290578 -0.05124,0.06723 -0.09867,0.137845 -0.130754,0.216304 -0.02627,0.06813 -0.05173,0.13655 -0.07576,0.205512 -0.03106,0.106873 -0.0771,0.208172 -0.121552,0.309882 -0.03951,0.08537 -0.082,0.169213 -0.125167,0.252768 -0.02868,0.05965 -0.0609,0.116101 -0.103226,0.167013 -0.05833,0.06146 -0.112823,0.126223 -0.165841,0.192272 -0.05241,0.06744 -0.108857,0.131548 -0.159074,0.200677 -0.03292,0.03828 -0.05973,0.07867 -0.08126,0.124166 -0.01978,0.05019 -0.02468,0.104467 -0.03817,0.15655 -0.01754,0.0478 -0.02611,0.09796 -0.03876,0.147069 -0.0094,0.04544 -0.01994,0.08981 -0.03852,0.132454 -0.0068,0.01633 -0.01009,0.02318 -0.01524,0.0401 -0.0016,0.0054 6.85e-4,0.01914 -0.0041,0.01628 -0.0071,-0.0042 -4.92e-4,-0.02688 -0.0081,-0.02356 -0.378791,0.16515 -0.504343,0.322278 -0.37691,0.171354 0.0997,-0.136528 0.186343,-0.28217 0.278517,-0.423839 0.149826,-0.225698 0.268563,-0.468891 0.382318,-0.714052 0.09739,-0.229576 0.193811,-0.459321 0.306044,-0.682122 0.07055,-0.135425 0.151349,-0.265701 0.239463,-0.39039 0.0591,-0.07176 0.107345,-0.149259 0.1411,-0.235725 0.01909,-0.06516 0.039,-0.129608 0.06242,-0.193367 0.02568,-0.0712 0.05116,-0.142538 0.08161,-0.211863 0.03881,-0.08151 0.101397,-0.146062 0.164984,-0.208503 0.05652,-0.05649 0.119126,-0.10647 0.176296,-0.162236 0.140869,-0.05451 0.278386,-0.118628 0.422607,-0.163522 0.01682,-0.0052 -0.02071,0.02854 -0.03211,0.04197 -0.0156,0.01838 -0.03219,0.03589 -0.04879,0.05337 -0.0722,0.07601 -0.149627,0.147037 -0.223957,0.22095 -0.09437,0.09697 -0.191947,0.192974 -0.262934,0.309252 -0.03138,0.0514 -0.03634,0.06784 -0.05898,0.120817 -0.02714,0.06784 -0.03646,0.139372 -0.03769,0.211802 -5.8e-4,0.07031 4.82e-4,0.140613 9.35e-4,0.210918 -6.02e-4,0.06322 0.0055,0.126652 -0.0023,0.189572 -0.01321,0.05992 -0.03661,0.117693 -0.06712,0.170848 -0.006,6.28e-4 -0.02754,0.05798 -0.0287,0.05813 -0.02183,0.0027 0.02859,-0.05767 -0.0039,-0.04165 -0.131928,0.06509 -0.256118,0.144818 -0.384177,0.217227 0.07118,-0.04626 0.125235,-0.113745 0.182002,-0.175899 0.06221,-0.07364 0.129901,-0.140999 0.202858,-0.203872 0.113794,-0.09401 0.206459,-0.206718 0.284792,-0.331041 0.06952,-0.113793 0.09661,-0.243924 0.126579,-0.371888 0.01392,-0.0724 0.03886,-0.141433 0.07331,-0.206433 0.03542,-0.05991 0.07754,-0.115428 0.11748,-0.172323 0.05647,-0.08516 0.117765,-0.166475 0.185081,-0.243327 0.09105,-0.103743 0.197672,-0.191664 0.299581,-0.284178 0.07774,-0.06842 0.150751,-0.141814 0.218808,-0.219807 0.06758,-0.07458 0.127469,-0.154027 0.175438,-0.242482 0.04497,-0.08183 0.08298,-0.166599 0.105032,-0.257437 0.01339,-0.06709 0.01828,-0.135879 0.01422,-0.204144 -0.0092,-0.05323 -0.02385,-0.0703 -0.07538,-0.08235 -0.04374,-0.0012 -0.09591,-0.01723 -0.137793,0.0022 -0.01145,0.0053 -0.02079,0.01432 -0.03119,0.02149 0.698071,-0.384813 0.390393,-0.272524 0.303314,-0.135012 -0.02822,0.04457 -0.0407,0.09375 -0.05303,0.144267 -0.01616,0.07568 -0.01775,0.15303 -0.01873,0.230048 -0.0073,0.08859 -0.01484,0.177194 -0.0225,0.265773 -0.01058,0.111062 -0.03268,0.220552 -0.05055,0.330562 -0.0096,0.08023 -0.02106,0.160032 -0.0537,0.234379 -0.03512,0.06767 -0.10408,0.106667 -0.162252,0.152594 -0.07764,0.06842 -0.143825,0.148998 -0.205952,0.231456 -0.05786,0.07569 -0.109488,0.155767 -0.163703,0.23404 -0.05208,0.06704 -0.09931,0.13754 -0.14628,0.208185 -0.13186,0.210788 -0.111384,0.124954 -0.489537,0.345043 -0.08004,0.01218 -0.156141,0.04215 -0.232389,0.06825 -0.154585,0.06078 -0.405665,0.212701 0.268986,-0.164449 0.0096,-0.0053 -0.01843,0.0119 -0.02699,0.01874 -0.01904,0.0152 -0.02035,0.01927 -0.03424,0.03787 -0.009,0.01348 -0.03855,0.112307 -0.009,0.109562 0.0056,-5.16e-4 0.0098,-0.0053 0.01471,-0.008 0.133083,-0.09756 0.288967,-0.163406 -0.337612,0.186259 -0.0082,0.0046 0.01523,-0.01112 0.02219,-0.01744 0.01617,-0.01469 0.02717,-0.02955 0.04098,-0.04648 0.06254,-0.08463 0.07502,-0.19122 0.0922,-0.292124 0.0099,-0.08055 0.02077,-0.16078 0.0553,-0.234784 0.03737,-0.06114 0.0882,-0.112243 0.134383,-0.166563 0.06023,-0.06935 0.107813,-0.146705 0.150557,-0.227694 0.06751,-0.140226 0.106775,-0.290391 0.128332,-0.443866 0.01,-0.09765 0.03465,-0.191735 0.07338,-0.281652 0.05434,-0.09945 0.106893,-0.199829 0.160934,-0.299421 0.07104,-0.122933 0.151068,-0.240338 0.227643,-0.359843 0.110124,-0.153665 0.210849,-0.313332 0.308455,-0.47514 0.110843,-0.207724 0.236505,-0.405975 0.370318,-0.599444 0.144463,-0.185968 0.282055,-0.377176 0.408831,-0.575633 0.06621,-0.111687 0.130508,-0.224948 0.175679,-0.346946 0.02016,-0.06105 0.03397,-0.124708 0.03269,-0.189212 -0.0072,-0.04742 -0.01241,-0.09525 -0.02034,-0.142556 -0.0087,-0.05409 -0.02184,-0.106174 -0.04843,-0.154346 -0.05745,-0.0921 -0.133026,-0.0673 -0.225339,-0.04365 -0.02511,0.0077 -0.05102,0.01326 -0.07534,0.0232 -0.02908,0.01189 -0.111365,0.0581 -0.08434,0.04207 0.0995,-0.05903 0.198882,-0.118563 0.301925,-0.171152 0.02771,-0.01414 -0.05179,0.03478 -0.07509,0.05539 -0.05672,0.05015 -0.06661,0.07312 -0.107488,0.134257 -0.05395,0.09253 -0.07921,0.194278 -0.08638,0.300082 -0.0038,0.0957 -0.0011,0.191557 -0.0011,0.28733 3.84e-4,0.144391 -0.0015,0.288762 -0.0023,0.433149 -0.0026,0.176566 -4.53e-4,0.353109 0.0013,0.529666 0.0013,0.09156 0.004,0.183097 0.0055,0.274655 0.0051,0.05928 -0.0023,0.111842 -0.03131,0.163855 -0.100974,0.112896 -0.223171,0.205651 -0.339225,0.302506 -0.12379,0.101166 -0.232896,0.216816 -0.319573,0.351036 -0.04372,0.06551 -0.05926,0.143065 -0.08918,0.214655 -0.02416,0.0548 -0.04408,0.111258 -0.06275,0.168119 -0.01786,0.06331 -0.04168,0.124439 -0.06373,0.186318 -0.02439,0.0688 -0.05251,0.136402 -0.08252,0.202945 -0.01663,0.04407 -0.03691,0.08566 -0.07059,0.119079 -0.205902,0.231557 -0.370356,0.367578 -0.531386,0.184629 -0.06867,-0.07902 -0.06894,-0.147072 -0.04434,-0.244142 0.04031,-0.122994 0.113775,-0.229743 0.192539,-0.330878 0.05653,-0.07794 0.129815,-0.143941 0.177041,-0.228467 0.0013,-0.0036 2.83e-4,-0.0093 0.0038,-0.01085 0.362877,-0.15764 0.476405,-0.322497 0.41436,-0.143728 -0.01619,0.04666 -0.03709,0.09029 -0.0587,0.134643 -0.08961,0.184139 -0.204231,0.353799 -0.312706,0.526963 -0.05671,0.099 -0.115696,0.196807 -0.167979,0.298279 -0.02648,0.0514 -0.05113,0.09724 -0.05526,0.154989 0.03344,0.02889 0.08571,0.02232 0.12589,0.01559 0.133979,-0.02242 0.244381,-0.09509 0.359824,-0.162072 -0.07047,0.03591 -0.134525,0.126244 -0.211416,0.107716 -0.06273,-0.01512 0.10221,-0.07904 0.149862,-0.122548 0.177751,-0.162309 0.290045,-0.338407 0.40277,-0.547385 0.05972,-0.130176 0.127926,-0.275937 0.1063,-0.423987 -0.0022,-0.01513 -0.0082,-0.02945 -0.01233,-0.04417 -0.0048,-0.0084 -0.01573,-0.03936 -0.03433,-0.03725 -0.0013,1.48e-4 -0.04781,0.03424 -0.04397,0.03212 0.308891,-0.170549 0.492911,-0.286356 0.327387,-0.182898 -0.08051,0.05676 -0.156535,0.119768 -0.224775,0.190797 -0.116465,0.129924 -0.15684,0.29563 -0.179464,0.463948 -0.0033,0.118188 -0.01309,0.247948 0.03909,0.357969 0.0055,0.0052 0.0098,0.01193 0.0164,0.01567 0.01497,0.0085 0.02598,0.0039 0.03905,-0.0057 0.0077,-0.0056 0.02865,-0.02447 0.02029,-0.01997 -0.379893,0.204192 -0.463322,0.328019 -0.342665,0.166876 0.07051,-0.137537 0.09062,-0.291815 0.08303,-0.444477 -0.0072,-0.05327 -0.01759,-0.107136 -0.04451,-0.154467 -0.01643,-0.02889 -0.03989,-0.05212 -0.05658,-0.0811 -0.02687,-0.09294 -0.0062,-0.193841 0.0075,-0.287768 0.0074,-0.04854 0.01566,-0.09655 0.02731,-0.144228 0,0 0.422959,-0.199625 0.422959,-0.199625 v 0 c -0.01767,0.04548 -0.02619,0.09153 -0.03342,0.139875 -0.01522,0.08416 -0.02725,0.171497 -0.01571,0.256856 0.01597,0.03067 0.03881,0.05636 0.05429,0.08736 0.02691,0.05392 0.03865,0.1134 0.04583,0.17273 0.0082,0.158494 -0.0087,0.317212 -0.06705,0.465992 -0.08745,0.204903 -0.01477,0.0633 -0.450004,0.315305 -0.04316,0.02499 -0.09512,-0.0206 -0.116285,-0.05308 -0.04919,-0.121962 -0.03875,-0.25887 -0.0356,-0.387609 0.01951,-0.171404 0.05185,-0.342991 0.157342,-0.484549 0.06547,-0.07786 0.139097,-0.137596 0.217967,-0.201296 0.167907,-0.112606 0.137314,-0.09338 0.477478,-0.277128 0.05491,-0.02966 0.102623,0.02951 0.117396,0.07376 0.0046,0.01827 0.01138,0.03613 0.01381,0.05482 0.02071,0.159358 -0.04644,0.317127 -0.115831,0.455565 -0.08207,0.148385 -0.167328,0.295931 -0.276451,0.426768 -0.218904,0.262463 -0.500476,0.421817 -0.801648,0.58668 -0.124693,0.06906 -0.248929,0.148966 -0.395202,0.160494 -0.04606,0.0036 -0.09991,-3.13e-4 -0.138729,-0.03 -0.01478,-0.0113 -0.02242,-0.0297 -0.03363,-0.04455 1.53e-4,-0.01626 -0.0028,-0.03285 4.61e-4,-0.04877 0.008,-0.0391 0.04237,-0.100545 0.05968,-0.132427 0.0562,-0.10352 0.120766,-0.202026 0.177816,-0.30507 0.102304,-0.168496 0.208583,-0.334672 0.293385,-0.51302 0.01906,-0.04066 0.04167,-0.08211 0.05614,-0.124794 0.0034,-0.01005 -0.0015,-0.02568 0.0077,-0.03089 0.142353,-0.08032 0.291182,-0.148612 0.437946,-0.220558 0.0039,-0.0019 -0.0056,0.0067 -0.0084,0.01 -0.04449,0.09308 -0.122235,0.161188 -0.184586,0.24187 -0.07749,0.09512 -0.150677,0.195219 -0.194127,0.311109 -0.02456,0.08145 -0.04009,0.131975 0.02387,0.199547 0.01157,0.01024 0.02556,0.02576 0.04171,0.03047 0.02168,0.0063 0.03702,-0.01277 0.02809,-0.0075 -0.381147,0.223266 -0.517143,0.314947 -0.376782,0.220741 0.02962,-0.03453 0.06954,-0.05877 0.08032,-0.107094 0.03074,-0.06495 0.06029,-0.130435 0.08424,-0.198272 0.02034,-0.06275 0.04827,-0.12267 0.06467,-0.18675 0.01999,-0.0569 0.03467,-0.115637 0.05893,-0.171097 0.0083,-0.01754 0.01822,-0.03434 0.02562,-0.05228 0.0236,-0.05722 0.03356,-0.120176 0.06901,-0.17256 0.0198,-0.03112 0.05172,-0.08252 0.07338,-0.111134 0.07238,-0.09558 0.161516,-0.177334 0.250584,-0.256833 0.110416,-0.09277 0.222293,-0.184184 0.32573,-0.284805 0.03912,-0.03945 0.04837,-0.08219 0.0444,-0.137081 0.0015,-0.09342 0.0041,-0.186817 0.0055,-0.28024 0.0018,-0.176961 0.004,-0.35391 0.0012,-0.530878 -9.7e-4,-0.142977 -0.003,-0.285934 -0.0051,-0.428898 -0.002,-0.09623 -0.0042,-0.192445 -0.0035,-0.288705 0.0063,-0.114733 0.03132,-0.224285 0.08742,-0.326099 0.03532,-0.05968 0.05403,-0.09927 0.103722,-0.149744 0.02253,-0.02289 0.04685,-0.04467 0.07427,-0.06139 0.204643,-0.124732 0.40963,-0.272803 0.645515,-0.333988 0.122111,-0.01963 0.196534,-0.02405 0.267371,0.08618 0.0295,0.05177 0.04729,0.10777 0.05725,0.166494 0.01097,0.04874 0.01237,0.09924 0.02263,0.148249 0.0074,0.07105 -0.0094,0.141973 -0.03018,0.209667 -0.04572,0.128229 -0.111603,0.246696 -0.183953,0.361814 -0.127548,0.198967 -0.267709,0.389631 -0.410175,0.578108 -0.134587,0.192491 -0.267663,0.385883 -0.372807,0.596672 -0.09166,0.162148 -0.189447,0.320943 -0.297877,0.472518 -0.07617,0.118674 -0.1528,0.236893 -0.227625,0.356393 -0.05363,0.09663 -0.09828,0.198181 -0.155315,0.292965 -0.04125,0.08684 -0.07423,0.176088 -0.08462,0.272657 -0.02433,0.157258 -0.06302,0.310641 -0.125097,0.457726 -0.03688,0.08449 -0.07613,0.163483 -0.135822,0.233986 -0.04478,0.05354 -0.09184,0.104983 -0.137188,0.157673 -0.04368,0.06716 -0.05918,0.144925 -0.06905,0.223736 -0.01683,0.104301 -0.02668,0.214048 -0.07663,0.308739 -0.116961,0.181505 -0.224248,0.181263 -0.483974,0.328982 -0.0087,0.0049 -0.01901,0.0068 -0.02897,0.0077 -0.01077,9.99e-4 -0.02158,-0.0014 -0.03237,-0.002 -0.01033,-0.0058 -0.02215,-0.0095 -0.03098,-0.0174 -0.04573,-0.04091 -0.02666,-0.109699 -0.01747,-0.161582 0.01209,-0.02875 0.02727,-0.0635 0.05567,-0.08053 0.186222,-0.111675 0.338621,-0.221985 0.533131,-0.289001 0.07861,-0.02711 0.15938,-0.04927 0.236596,-0.07922 -0.128399,0.07586 -0.256883,0.151571 -0.385198,0.227569 -0.0054,0.0032 0.01137,-0.0053 0.01631,-0.0091 0.02545,-0.01949 0.03888,-0.05441 0.0571,-0.07969 0.04947,-0.07085 0.09695,-0.143091 0.150735,-0.210823 0.05526,-0.0777 0.104155,-0.159815 0.163669,-0.234452 0.05866,-0.08647 0.128801,-0.165115 0.19981,-0.241607 0.03045,-0.0272 0.0623,-0.05384 0.09549,-0.07769 0.0252,-0.01811 0.02974,-0.01522 0.05202,-0.03551 0.007,-0.0064 0.01271,-0.01402 0.01906,-0.02104 0.04116,-0.06815 0.05579,-0.145234 0.06555,-0.223653 0.0175,-0.109091 0.04089,-0.217268 0.05088,-0.327481 0.0095,-0.08642 0.0089,-0.173667 0.02038,-0.259998 1.97e-4,-0.08072 0.0029,-0.161763 0.01853,-0.241214 0.06952,-0.328422 0.168131,-0.281328 0.535569,-0.502648 0.06702,-0.01905 0.127457,-0.01685 0.194096,0.0032 0.05738,0.02639 0.09058,0.06654 0.100916,0.130018 0.0072,0.07232 0.0015,0.146217 -0.0097,0.217884 -0.02035,0.09512 -0.05586,0.184956 -0.103596,0.269882 -0.04545,0.09148 -0.09895,0.176554 -0.169209,0.251427 -0.06825,0.08113 -0.140885,0.158305 -0.221996,0.226952 -0.09966,0.09395 -0.208945,0.177665 -0.300711,0.279748 -0.06631,0.07362 -0.126668,0.151128 -0.180252,0.234532 -0.03737,0.05763 -0.08032,0.111231 -0.117147,0.169198 -0.03982,0.05991 -0.06817,0.126858 -0.08461,0.196938 -0.03628,0.131145 -0.05945,0.26738 -0.127298,0.387415 -0.02327,0.03911 -0.05703,0.09771 -0.08357,0.134879 -0.05455,0.07641 -0.124123,0.141265 -0.190339,0.207185 -0.0718,0.06123 -0.142688,0.122589 -0.200618,0.197765 -0.05949,0.06036 -0.11255,0.126683 -0.173493,0.185714 -0.123806,0.07064 -0.436513,0.356809 -0.47901,0.200306 -0.0064,-0.0235 0.01701,-0.05247 0.02443,-0.07246 0.01,-0.01609 0.02179,-0.03102 0.03113,-0.04749 0.01891,-0.03332 0.02786,-0.07176 0.04228,-0.106998 0.01332,-0.06074 0.01025,-0.122036 0.0099,-0.184065 -8.5e-4,-0.07014 -0.0022,-0.140247 -0.0044,-0.210357 7.81e-4,-0.07931 0.0099,-0.157797 0.03901,-0.232354 0.02251,-0.05456 0.03036,-0.0784 0.06118,-0.131191 0.07081,-0.121282 0.16989,-0.221038 0.267392,-0.320706 0.06996,-0.07227 0.142606,-0.1417 0.212081,-0.214398 0.01514,-0.01584 0.03033,-0.03166 0.04493,-0.048 0.0098,-0.01099 0.01512,-0.02735 0.02829,-0.03396 0.146721,-0.07358 0.298534,-0.136531 0.447801,-0.204797 -0.06529,0.048 -0.120833,0.109737 -0.183089,0.161582 -0.06216,0.05896 -0.125939,0.117877 -0.170076,0.192205 -0.03331,0.06608 -0.05686,0.136422 -0.08069,0.206335 -0.02237,0.06512 -0.05157,0.127502 -0.06548,0.19545 -0.03242,0.09283 -0.07376,0.176323 -0.140966,0.249872 -0.09334,0.122846 -0.175919,0.253652 -0.251444,0.38811 -0.120192,0.222409 -0.223048,0.453388 -0.321061,0.68632 -0.109207,0.244132 -0.223898,0.48639 -0.365452,0.713805 -0.09032,0.138357 -0.175682,0.279651 -0.262463,0.420202 -0.109486,0.16586 -0.04792,0.08358 -0.455572,0.271417 -0.01075,0.005 -0.01522,-0.019 -0.01833,-0.03042 -0.0025,-0.0093 0.01788,-0.05094 0.01813,-0.06221 0.0174,-0.04145 0.03831,-0.08056 0.04221,-0.126399 0.01313,-0.04977 0.02176,-0.100441 0.03842,-0.149262 0.01909,-0.05195 0.02411,-0.106397 0.0353,-0.160301 0.01857,-0.0498 0.03963,-0.0985 0.07963,-0.135231 0.05117,-0.071 0.107631,-0.137216 0.162733,-0.205101 0.05274,-0.06409 0.100478,-0.132487 0.159155,-0.191598 0.04484,-0.04744 0.08329,-0.09747 0.11052,-0.157357 0.043,-0.08424 0.08964,-0.166488 0.130125,-0.252012 0.04437,-0.09958 0.09303,-0.198524 0.120586,-0.304338 0.02133,-0.06949 0.04535,-0.138281 0.07212,-0.205827 0.02871,-0.08492 0.07747,-0.161202 0.132492,-0.23154 0.08286,-0.115313 0.18443,-0.213796 0.295261,-0.30241 0.09382,-0.07701 0.192309,-0.149786 0.271966,-0.242169 0.150481,-0.06766 0.299987,-0.137524 0.451445,-0.202966 0.0067,-0.0029 -0.01073,0.0098 -0.016,0.01482 -0.05485,0.05197 -0.110957,0.102701 -0.168537,0.151629 -0.09861,0.0908 -0.201525,0.176819 -0.294986,0.273032 -0.04794,0.05087 -0.09302,0.107154 -0.120707,0.171843 -0.03727,0.05943 -0.07033,0.120536 -0.09797,0.184967 -0.02629,0.0588 -0.05685,0.115134 -0.09636,0.166341 -0.02775,0.05355 -0.05596,0.1084 -0.0704,0.167197 -0.01928,0.06861 -0.02741,0.140543 -0.04879,0.208829 -0.04722,0.159453 -0.124284,0.306921 -0.207483,0.450454 -0.10416,0.170432 -0.214769,0.339557 -0.358398,0.479751 -0.01629,0.01287 -0.03258,0.02574 -0.04888,0.03861 -0.01394,0.01151 -0.02771,0.02324 -0.04183,0.03453 -0.03068,0.0245 -0.0658,0.04784 -0.09333,0.07607 -0.0069,0.0071 -0.01195,0.01574 -0.01793,0.0236 0,0 -0.437744,0.18132 -0.437744,0.18132 z"
   inkscape:connector-curvature="0" /><path
   style="fill:#00ff00"
   id="path7065"
   d="m 18.881193,19.487351 c 0.130805,-0.100716 0.25931,-0.204688 0.376164,-0.321467 0.07336,-0.07183 0.106935,-0.147463 0.127774,-0.245992 0.01581,-0.106719 0.01571,-0.21491 0.01578,-0.32254 -0.0047,-0.02737 0.0083,-0.118477 -0.01022,-0.139991 -0.0063,-0.0073 -0.01233,0.01501 -0.01675,0.02358 0.649823,-0.354591 0.44618,-0.291289 0.340304,-0.167817 -0.04552,0.05309 -0.08169,0.114859 -0.113869,0.176602 -0.04316,0.0851 -0.07053,0.174875 -0.08495,0.26886 -0.0077,0.08487 -0.01984,0.168983 -0.03705,0.2524 -0.0102,0.04802 -0.01736,0.09675 -0.01819,0.145875 0.02416,0.163104 0.0065,0.02856 -0.424939,0.215327 -0.0075,0.0032 7.79e-4,-0.01631 0.0014,-0.02444 9.15e-4,-0.012 0.002,-0.024 0.0032,-0.03597 0.01593,-0.152695 -0.0057,0.06795 0.0096,-0.0901 0.01307,-0.105435 0.01148,-0.211009 -0.008,-0.315346 -0.0145,-0.064 -0.0493,-0.111653 -0.102173,-0.14858 -0.04046,-0.02143 -0.08094,-0.02008 -0.122771,-0.0048 -0.0083,0.0043 -0.01689,0.0083 -0.02499,0.01302 -0.01739,0.01018 -0.06922,0.04129 -0.05175,0.03124 0.663191,-0.381495 0.445111,-0.273357 0.316136,-0.173143 -0.04025,0.03737 -0.08041,0.07508 -0.118011,0.115137 -0.03269,0.03002 -0.05734,0.0642 -0.07832,0.103129 -0.01938,0.04687 -0.02796,0.09749 -0.03942,0.146719 -0.01684,0.05734 -0.04389,0.110952 -0.07014,0.164421 -0.02635,0.05594 -0.0469,0.113759 -0.07677,0.16806 -0.03224,0.04281 -0.05744,0.08971 -0.08435,0.13584 -0.02923,0.04959 -0.05031,0.103643 -0.069,0.157944 -0.01579,0.06145 -0.03449,0.122084 -0.05267,0.182862 -0.0031,0.0098 -0.0062,0.01952 -0.0094,0.02927 0,0 -0.426037,0.200536 -0.426037,0.200536 v 0 c 0.0032,-0.0099 0.0065,-0.01974 0.0097,-0.0296 0.02109,-0.05903 0.03788,-0.120173 0.05174,-0.18126 0.01551,-0.05836 0.04,-0.114175 0.06598,-0.168591 0.02686,-0.04646 0.04783,-0.09543 0.08088,-0.137963 0.04004,-0.04764 0.05949,-0.1061 0.0809,-0.163702 0.02734,-0.05017 0.04974,-0.102839 0.07344,-0.154765 0.01531,-0.04988 0.0218,-0.102064 0.03487,-0.152554 0.0083,-0.02322 0.01953,-0.04074 0.03092,-0.06218 0.01175,-0.02212 0.01827,-0.04137 0.04175,-0.05464 0.03677,-0.04354 0.07882,-0.08112 0.118706,-0.121766 0.135467,-0.132643 0.333016,-0.210566 0.485855,-0.29925 0.01638,-0.0095 0.03809,-0.02033 0.05605,-0.02635 0.0097,-0.0033 0.01984,-0.0051 0.02976,-0.0076 0.05347,-0.0045 0.103565,0.0048 0.147042,0.03822 0.05633,0.04884 0.09665,0.10687 0.112616,0.181173 0.02142,0.107534 0.02448,0.217098 0.01513,0.326336 -0.02285,0.281364 0.05029,0.117379 -0.432842,0.364018 -0.0023,0.0012 0.0014,-0.005 0.0021,-0.0075 0.0043,-0.05177 0.0055,-0.104014 0.01846,-0.154697 0.01932,-0.08292 0.03868,-0.165544 0.04229,-0.251114 0.01316,-0.09799 0.03432,-0.192718 0.07879,-0.281967 0.02263,-0.04957 0.04904,-0.09344 0.07885,-0.139053 0.0018,-0.0028 0.05688,-0.08821 0.06244,-0.09179 0.141344,-0.0909 0.289626,-0.17054 0.434439,-0.25581 0.01093,0.0038 0.02313,0.0049 0.03279,0.01128 0.05371,0.03527 0.0258,0.128397 0.03103,0.179437 -8.79e-4,0.109841 -0.0011,0.219933 -0.01245,0.329313 -0.01345,0.105201 -0.04423,0.197982 -0.121856,0.274457 -0.08498,0.08649 -0.177475,0.161819 -0.268923,0.24115 -0.01935,0.01678 -0.03712,0.03535 -0.05671,0.05185 -0.01164,0.0098 -0.02456,0.01796 -0.03684,0.02694 0,0 -0.437551,0.177316 -0.437551,0.177316 z"
   inkscape:connector-curvature="0" /><path
   style="fill:#00ff00"
   id="path7067"
   d="m 19.469444,18.452841 c 0.04647,-0.08871 0.09066,-0.178532 0.137896,-0.266873 0.04769,-0.09093 0.106354,-0.174916 0.170818,-0.25458 0.08876,-0.09143 0.179482,-0.180541 0.260204,-0.279323 0.07452,-0.09354 0.13656,-0.195787 0.199264,-0.297347 0.05541,-0.07666 0.111957,-0.15294 0.169927,-0.227816 0.0655,-0.06921 0.123925,-0.142675 0.167256,-0.227702 0.03489,-0.09045 0.05443,-0.185522 0.06696,-0.281351 0.01802,-0.212937 0.0056,-0.06319 0.581403,-0.298164 0.02635,-0.01075 -0.04206,0.0384 -0.06198,0.05872 -0.06277,0.06405 -0.122726,0.130797 -0.184629,0.195683 -0.18911,0.199266 -0.387873,0.389351 -0.569666,0.595441 -0.116406,0.130979 -0.197328,0.286787 -0.283961,0.437743 -0.06336,0.112772 -0.127857,0.225063 -0.198859,0.333236 -0.03309,0.05773 -0.08354,0.102211 -0.11271,0.162077 -0.02226,0.07929 0.01856,0.162976 0.04192,0.237825 0.01753,0.06724 0.04317,0.131856 0.06623,0.197267 6e-4,0.0017 0.03244,0.0966 0.03623,0.100658 0.0039,0.0042 0.0081,-0.0082 0.01209,-0.01228 -0.187703,0.09577 -0.375406,0.191533 -0.563109,0.2873 0.01222,-0.01125 0.02743,-0.01994 0.03665,-0.03375 0.0148,-0.02216 0.02465,-0.04739 0.03414,-0.07229 0.03516,-0.09229 0.05039,-0.190255 0.06653,-0.287078 0.01201,-0.125556 0.03767,-0.254568 0.01589,-0.380319 -0.02575,-0.1004 -0.12465,-0.149061 -0.208668,-0.195469 -0.02436,-0.01103 -0.05136,-0.02724 -0.07981,-0.02604 -0.05597,0.0024 -0.134346,0.05313 -0.181339,0.08046 -0.512691,0.283881 1.901845,-1.085579 -0.137611,0.07786 -0.176592,0.10074 0.352131,-0.203315 0.528541,-0.304372 0.0228,-0.01306 -0.04426,0.0284 -0.06552,0.04386 -0.01217,-0.0011 -0.0513,0.04957 -0.05785,0.05051 -0.0036,5.2e-4 -0.0011,-0.01145 -0.0045,-0.01003 -0.602376,0.25372 -0.746007,0.441147 -0.586751,0.242221 0.05305,-0.0837 0.06791,-0.180665 0.08486,-0.276227 0.01193,-0.115689 0.06763,-0.212726 0.129623,-0.308325 0.107679,-0.151717 0.242865,-0.280038 0.37099,-0.41391 0.134976,-0.144268 0.27701,-0.281915 0.405747,-0.431881 0.07984,-0.08674 0.143192,-0.186621 0.221164,-0.274738 0.08893,-0.07663 0.167149,-0.160825 0.236433,-0.255531 0.114493,-0.165199 0.179382,-0.358189 0.250487,-0.54461 0.07745,-0.239032 0.134425,-0.484617 0.190775,-0.729393 0.03652,-0.17962 0.08678,-0.356189 0.148285,-0.528784 0.05628,-0.142554 0.112675,-0.285197 0.183927,-0.421023 0.06805,-0.122443 0.162406,-0.225971 0.250421,-0.333737 0.05092,-0.05354 0.08685,-0.115017 0.121017,-0.17952 0.0331,-0.06535 0.0677,-0.129999 0.09755,-0.19692 0.0048,-0.01456 0.01023,-0.02891 0.01431,-0.04368 0.01136,-0.04108 0.03157,-0.121137 0.02229,-0.16326 -9.97e-4,-0.0045 -0.0021,0.009 -0.0032,0.01353 0.997358,-0.491024 0.601734,-0.376635 0.443186,-0.160402 -0.07813,0.106559 -0.138795,0.225779 -0.202133,0.341292 -0.07873,0.148449 -0.136329,0.307051 -0.183395,0.468055 -0.02454,0.104368 -0.07204,0.199914 -0.117643,0.296102 -0.05706,0.09754 -0.0851,0.205937 -0.112155,0.314506 -0.02943,0.09843 -0.04689,0.199769 -0.07438,0.29864 -0.04771,0.154146 -0.152962,0.279445 -0.256504,0.399525 -0.158751,0.177516 -0.315425,0.357596 -0.436579,0.563282 -0.06337,0.119557 -0.100226,0.250157 -0.142942,0.377867 -0.02698,0.08272 -0.03923,0.169348 -0.05481,0.25476 -0.01348,0.08259 -0.01741,0.166242 -0.01954,0.249762 3.2e-5,0.119719 -0.0263,0.236576 -0.05204,0.352756 -0.046,0.186407 -0.09577,0.37184 -0.142973,0.557962 -0.04636,0.150093 -0.07923,0.303825 -0.128175,0.453097 -0.03725,0.117234 -0.09338,0.226105 -0.169053,0.322795 -0.09333,0.0972 -0.187595,0.19397 -0.28415,0.288061 -0.352379,0.213171 -0.603135,0.567672 -0.769626,0.175409 -0.02639,-0.07256 -0.03475,-0.146489 -0.0086,-0.219654 0.0065,-0.01039 0.01154,-0.02188 0.01952,-0.03119 0.0082,-0.0095 0.01761,-0.01826 0.02839,-0.02466 0.201121,-0.116767 0.402241,-0.233534 0.603362,-0.3503 0.01229,-0.0039 0.02498,-0.0068 0.03687,-0.01184 0.02102,-0.0089 0.04061,-0.02093 0.06161,-0.02987 -1.027823,0.547145 -0.607203,0.378575 -0.411159,0.220436 0.08384,-0.07055 0.153323,-0.156412 0.221598,-0.241609 0.116991,-0.161026 0.210827,-0.337061 0.31685,-0.505201 0.0877,-0.144326 0.188602,-0.279117 0.298568,-0.40701 0.0766,-0.07779 0.128757,-0.173991 0.194783,-0.259871 0.06112,-0.07471 0.144085,-0.125369 0.21616,-0.188243 0.02784,0.01782 0.0065,0.0017 0.01406,0.07902 0.162998,-0.09166 0.322958,-0.188941 0.488992,-0.274977 0.0453,-0.02347 -0.08515,0.05634 -0.126013,0.08689 -0.160384,0.119885 -0.238111,0.19104 -0.39443,0.324467 -0.357679,0.314463 -0.72065,0.625417 -1.03096,0.988008 -0.08908,0.105497 -0.159019,0.221835 -0.177625,0.359609 0.0019,0.0105 -0.01135,0.07196 0.0077,0.08011 0.0041,0.0018 0.0054,-0.0074 0.0092,-0.0098 0.01407,-0.0091 0.03022,-0.01458 0.04497,-0.02257 0.203783,-0.120832 0.517345,-0.289967 -0.437176,0.25035 -0.01322,0.0075 0.0257,-0.01632 0.03744,-0.02595 0.01204,-0.0099 0.02247,-0.02157 0.0337,-0.03235 0.07186,-0.09728 0.08273,-0.219416 0.07075,-0.336252 -0.02382,-0.09186 -0.03188,-0.114204 -0.123225,-0.08857 -0.1968,0.136411 -0.06909,0.04685 0.534015,-0.299275 0.0026,-0.0015 -0.03647,0.01411 -0.01839,-0.01204 0.0031,-0.0046 0.03845,0.0027 0.05101,0.0047 0.112907,0.02306 0.19204,0.0025 0.289211,-0.05565 -0.899565,0.524246 -0.594859,0.390018 -0.435541,0.214703 0,0 0.6087,-0.259919 0.6087,-0.259919 v 0 c -0.17322,0.242515 -0.337327,0.281651 -0.690539,0.45854 -0.109348,0.04339 -0.206306,0.04974 -0.320926,0.02039 -0.0495,-0.01662 -0.09147,-0.03285 -0.108717,-0.08855 -0.0031,-0.0099 -0.006,-0.02546 0.0027,-0.031 0.193932,-0.122561 0.394115,-0.235077 0.59464,-0.346523 0.0096,-0.0053 0.02186,-0.0015 0.03279,-0.0022 0.10093,0.01056 0.152572,0.08183 0.171647,0.178107 0.01443,0.129788 0.0063,0.262125 -0.0468,0.383136 -0.147993,0.226541 -0.433507,0.29506 -0.66707,0.429819 -0.01001,0.0058 -0.06137,0.02945 -0.07301,0.03339 -0.01244,0.0042 -0.02546,0.0064 -0.0382,0.0096 -0.102824,-0.0011 -0.131489,-0.0609 -0.12568,-0.156352 0.01387,-0.156694 0.08408,-0.290498 0.188576,-0.408078 0.323406,-0.365743 0.695338,-0.682544 1.057839,-1.00836 0.08797,-0.07843 0.263351,-0.236687 0.360501,-0.316807 0.0359,-0.02961 0.07096,-0.06086 0.110717,-0.08504 0.07574,-0.04606 0.505211,-0.546891 0.720487,-0.326622 0.0071,0.0072 -1.03e-4,0.02018 -1.54e-4,0.03028 -0.06317,0.07448 -0.149407,0.116952 -0.216311,0.185915 -0.08259,0.0759 -0.124977,0.182802 -0.203868,0.262541 -0.113838,0.125379 -0.220429,0.25698 -0.309879,0.401203 -0.109208,0.164956 -0.201855,0.339437 -0.307253,0.506751 -0.06397,0.08736 -0.130797,0.173977 -0.207533,0.250437 -0.211355,0.19507 -0.482683,0.300034 -0.731075,0.446123 -0.02719,0.01303 -0.153039,0.07968 -0.09421,0.04513 0.969393,-0.569258 0.68391,-0.375932 0.480303,-0.286133 -0.04456,0.04853 -0.04075,0.106612 -0.0215,0.167362 0.012,0.03111 0.02401,0.06694 0.05325,0.08694 0.03071,0.021 0.04751,1.4e-5 0.04737,9.8e-5 -0.174567,0.105486 -0.350446,0.208784 -0.525669,0.313176 0.0495,-0.04149 0.0906,-0.08651 0.13537,-0.132814 0.08009,-0.08283 0.02222,-0.01825 0.104559,-0.09727 0.01665,-0.01598 0.03204,-0.03324 0.04805,-0.04986 0.08051,-0.0884 0.142346,-0.188301 0.18106,-0.302201 0.0566,-0.147365 0.08532,-0.30276 0.137431,-0.451707 0.05161,-0.18258 0.09366,-0.367761 0.138343,-0.552125 0.02328,-0.111256 0.05155,-0.222749 0.04879,-0.337317 0.0021,-0.08651 0.0064,-0.173031 0.01799,-0.258866 0.01214,-0.08904 0.02881,-0.177989 0.04987,-0.265113 0.04685,-0.133574 0.09256,-0.26822 0.153608,-0.396113 0.01802,-0.03303 0.03432,-0.06706 0.05406,-0.0991 0.106159,-0.172346 0.248208,-0.320412 0.376532,-0.47573 0.09845,-0.112261 0.198804,-0.226828 0.254115,-0.367596 0.03046,-0.09757 0.04547,-0.1989 0.0766,-0.296398 0.02706,-0.111183 0.04948,-0.225855 0.105333,-0.326937 0.04681,-0.09281 0.09611,-0.185275 0.123006,-0.286308 0.05015,-0.168599 0.118588,-0.33201 0.196251,-0.489635 0.06401,-0.114977 0.1248,-0.232128 0.191639,-0.345497 0.0054,-0.0092 0.07638,-0.127594 0.09316,-0.136885 0.205789,-0.113885 0.419729,-0.212375 0.629594,-0.318562 0.0096,0.01296 0.02279,0.02389 0.02866,0.03888 0.01737,0.04434 -0.02106,0.181804 -0.02755,0.23152 -0.02215,0.07028 -0.05777,0.135464 -0.09107,0.200933 -0.03204,0.07072 -0.06558,0.141364 -0.122829,0.196003 -0.0848,0.10991 -0.18634,0.206277 -0.258611,0.32608 -0.0788,0.129369 -0.130213,0.271886 -0.187719,0.411495 -0.06746,0.171223 -0.124738,0.34718 -0.164901,0.526853 -0.05495,0.246744 -0.118819,0.491908 -0.183901,0.73609 -0.07049,0.187457 -0.132087,0.381322 -0.233726,0.554645 -0.0644,0.09746 -0.130962,0.193207 -0.225963,0.263626 -0.09026,0.08042 -0.148477,0.187222 -0.232726,0.273547 -0.126935,0.154923 -0.273621,0.291462 -0.409868,0.438036 -0.123729,0.13096 -0.255197,0.255655 -0.363423,0.400127 -0.06357,0.08351 -0.124055,0.176027 -0.138375,0.281886 -0.02124,0.09838 -0.02639,0.200922 -0.07133,0.292979 -0.08939,0.24658 -0.0088,0.04796 -0.635402,0.321623 -0.0049,0.0022 -0.0044,-0.01071 -0.0028,-0.01586 0.0053,-0.01768 0.04354,-0.05715 0.05601,-0.0701 0.256397,-0.181521 0.01152,-0.02423 0.674716,-0.402095 0.175736,-0.100129 -0.701829,0.402436 -0.525262,0.30378 0.891098,-0.497895 0.383865,-0.234056 0.662478,-0.378479 0.111286,-0.05 0.191827,-0.07124 0.301195,-0.0019 0.09842,0.05883 0.203433,0.129066 0.238892,0.243937 0.02789,0.135053 -0.0038,0.272262 -0.01863,0.407437 -0.01955,0.127288 -0.04208,0.253025 -0.07896,0.376611 -0.006,0.02027 -0.0012,0.04954 -0.01935,0.06042 -0.200006,0.120054 -0.413655,0.215758 -0.620482,0.323636 -0.01143,-0.01181 -0.02596,-0.02127 -0.03431,-0.03543 -0.008,-0.01353 -0.0087,-0.03017 -0.01323,-0.04521 -0.02588,-0.08614 -0.05773,-0.170136 -0.08575,-0.255569 -0.0297,-0.08904 -0.07378,-0.176497 -0.06962,-0.272554 0.02071,-0.08057 0.05815,-0.116592 0.109934,-0.178678 0.07318,-0.109232 0.149192,-0.216895 0.210397,-0.333766 0.08914,-0.154315 0.168345,-0.315954 0.284846,-0.452163 0.182772,-0.209438 0.388147,-0.397356 0.577117,-0.601118 0.02208,-0.02364 0.144985,-0.153908 0.170838,-0.186295 0.01654,-0.02072 0.02114,-0.05314 0.0443,-0.06604 0.204446,-0.113901 0.415634,-0.216031 0.630111,-0.309687 0.0097,-0.0042 0.01033,0.01907 0.01135,0.02958 0.0011,0.01179 -0.0034,0.02346 -0.0051,0.03518 -0.0119,0.1011 -0.0321,0.200194 -0.05933,0.298253 -0.03352,0.0946 -0.09011,0.17646 -0.160575,0.247658 -0.06538,0.06602 -0.106154,0.151015 -0.171364,0.217576 -0.06732,0.102299 -0.129777,0.207876 -0.205032,0.304738 -0.07013,0.105526 -0.161072,0.194953 -0.252281,0.282526 -0.06957,0.07102 -0.125087,0.153613 -0.175564,0.238889 -0.04496,0.08784 -0.09831,0.171314 -0.133935,0.263749 0,0 -0.610864,0.276374 -0.610864,0.276374 z"
   inkscape:connector-curvature="0" /><path
   style="fill:#00ff00"
   id="path7069"
   d="m 21.002166,16.206667 c 0.140532,-0.119898 0.264275,-0.257958 0.388394,-0.394359 0.09194,-0.100093 0.164715,-0.214473 0.241745,-0.325724 0.03714,-0.05896 0.07229,-0.119034 0.11349,-0.175305 0.05341,-0.0617 0.102979,-0.126846 0.157969,-0.187154 0.08415,-0.09245 0.162942,-0.189272 0.237478,-0.289565 0.06769,-0.09237 0.14149,-0.179986 0.209292,-0.27226 0.05858,-0.08339 0.119757,-0.165046 0.170216,-0.253708 0.03315,-0.0705 0.06233,-0.14263 0.09525,-0.213236 0.0277,-0.07118 0.05899,-0.138637 0.103562,-0.20082 0.05454,-0.06939 0.112091,-0.136062 0.17296,-0.199948 0.07171,-0.07122 0.13253,-0.149388 0.183358,-0.236454 0.0576,-0.09592 0.126348,-0.185259 0.198609,-0.270567 0.07546,-0.09173 0.148408,-0.185429 0.217939,-0.281728 0.0637,-0.09779 0.134694,-0.189642 0.215139,-0.274103 0.105166,-0.101908 0.218587,-0.195007 0.331722,-0.28787 0.101641,-0.07898 0.199089,-0.16305 0.29353,-0.250457 0.0739,-0.07078 0.142192,-0.146629 0.205693,-0.22677 0.06419,-0.07566 0.132654,-0.147527 0.195902,-0.223975 0.05022,-0.05917 0.0947,-0.122271 0.137645,-0.186765 0.04539,-0.06191 0.08057,-0.129054 0.109133,-0.200048 0.03165,-0.08189 0.03823,-0.169456 0.04234,-0.25626 -0.0022,-0.08324 0.01421,-0.163509 0.04019,-0.242014 0.02857,-0.05667 0.05755,-0.113323 0.08713,-0.169586 0.02196,-0.04861 0.04092,-0.09896 0.05826,-0.149501 0.02264,-0.05155 0.05142,-0.09965 0.08095,-0.147382 0.03189,-0.06953 0.07985,-0.129121 0.125898,-0.189507 0.05563,-0.06328 0.114889,-0.1232504 0.170194,-0.1868344 0.05331,-0.060058 0.112696,-0.1146722 0.170939,-0.1699654 0.06115,-0.062941 0.130149,-0.1169019 0.191798,-0.1794116 0.0531,-0.06333 0.112037,-0.1211123 0.166257,-0.1834343 0.05076,-0.057601 0.09772,-0.1182474 0.146875,-0.1771997 0.04014,-0.036169 0.06516,-0.084551 0.09973,-0.1252855 0.03192,-0.044013 0.06685,-0.086591 0.09246,-0.1346909 0.02231,-0.058797 0.0535,-0.1133949 0.08449,-0.1678812 0.02595,-0.056309 0.06187,-0.1060165 0.09977,-0.154564 0.04447,-0.042137 0.07976,-0.091764 0.11099,-0.1441459 0.03247,-0.052666 0.06449,-0.1053358 0.09909,-0.1566626 0.02638,-0.052481 0.06467,-0.096283 0.08812,-0.1502239 0.02996,-0.051738 0.05193,-0.1074754 0.07994,-0.1600776 0.03678,-0.051803 0.06039,-0.1111004 0.09205,-0.1658249 0.01058,-0.024945 0.05886,-0.090356 0.02918,-0.1148327 -0.05913,-0.00761 -0.118585,-0.0096 -0.178169,-0.010537 -0.112664,-0.00193 -0.225762,0.010077 -0.337206,0.026224 -0.154073,0.040012 -0.303514,0.099982 -0.442132,0.1781293 -0.01903,0.010507 -0.07593,0.042389 -0.0571,0.03152 1.725635,-0.9961414 -1.414961,0.8168181 0.340068,-0.1938057 -0.06394,0.043284 -0.132694,0.082171 -0.186845,0.1378134 -0.05417,0.052531 -0.09136,0.1172475 -0.125933,0.1834277 -0.04104,0.073666 -0.06623,0.1528427 -0.08093,0.2354324 -0.01231,0.1005067 -0.0126,0.2020318 -0.01263,0.3031429 2.82e-4,0.1107219 1.13e-4,0.2214464 0.0012,0.3321648 0.01127,0.063669 -0.01844,0.1578731 0.01298,0.215158 0.09431,-0.015367 0.18863,-0.066054 0.27345,-0.109695 0.207786,-0.104792 0.559683,-0.3093599 -0.370492,0.2188741 -0.01783,0.010127 0.03502,-0.021369 0.05216,-0.032632 0.0321,-0.021096 0.06282,-0.044052 0.09384,-0.066659 0.0789,-0.062764 0.156498,-0.126856 0.237316,-0.1871779 0.06925,-0.055156 0.144383,-0.101958 0.217087,-0.1523437 0.06122,-0.039804 0.112902,-0.089446 0.147958,-0.1536135 0.02683,-0.066794 0.0269,-0.069212 -0.0398,-0.077449 -0.0748,-0.00539 -0.151922,-0.015213 -0.225902,-3.74e-5 -0.195394,0.1226964 -0.441123,0.2454312 0.490433,-0.277921 0.0097,-0.00544 -0.01759,0.013625 -0.0257,0.021222 -0.02187,0.0205 -0.02342,0.02541 -0.04029,0.049664 -0.03716,0.072009 -0.06833,0.1471639 -0.100127,0.221732 -0.02629,0.072249 -0.0592,0.1402625 -0.100757,0.2047763 -0.0591,0.086118 -0.138218,0.1547737 -0.205172,0.2345445 -0.06245,0.07415 -0.119982,0.1523566 -0.171254,0.234632 -0.108691,0.2189555 -0.203927,0.114587 -0.625884,0.2914703 -0.007,0.00294 0.01293,-0.00836 0.01791,-0.014098 0.02136,-0.024557 0.03808,-0.052798 0.05766,-0.0788 0.120102,-0.1540587 0.250673,-0.2994033 0.379228,-0.4463391 0.12267,-0.1423141 0.23955,-0.2895088 0.35489,-0.4377895 0.04935,-0.072987 0.101808,-0.1434047 0.157026,-0.212008 0,0 0.612097,-0.2627954 0.612097,-0.2627954 v 0 c -0.05406,0.073007 -0.119695,0.1372703 -0.166154,0.2160936 -0.116842,0.151274 -0.23907,0.2984298 -0.361841,0.4449087 -0.124702,0.1429182 -0.251979,0.2842082 -0.365973,0.4359368 -0.0079,0.010176 -0.04413,0.055476 -0.05221,0.071108 -0.0043,0.00828 -2.33e-4,0.022563 -0.0086,0.026593 -0.163918,0.078592 -0.755784,0.4872125 -0.607831,0.2391453 0.04346,-0.091486 0.111752,-0.1706162 0.175035,-0.2488542 0.0609,-0.081395 0.129939,-0.1524594 0.198346,-0.2268236 0.04447,-0.060037 0.08412,-0.120403 0.108521,-0.191773 0.02873,-0.077268 0.06736,-0.1504474 0.09525,-0.2278443 0.112633,-0.2702199 0.44051,-0.4153155 0.72137,-0.4648651 0.08068,-0.00144 0.162454,7.332e-4 0.241163,0.020125 0.08637,0.034009 0.122585,0.082728 0.09595,0.1763507 -0.02555,0.075888 -0.06937,0.1402858 -0.134893,0.1878224 -0.03396,0.024735 -0.06794,0.050672 -0.102486,0.074416 -0.01303,0.00895 -0.0271,0.016274 -0.04065,0.024411 -0.01351,0.00756 -0.02775,0.013949 -0.04053,0.022685 -0.01281,0.00875 -0.02396,0.019714 -0.03593,0.029571 -0.08069,0.062286 -0.165613,0.1190293 -0.239731,0.1895502 -0.28313,0.2061913 -0.587828,0.3813875 -0.903763,0.5330668 -0.0792,0.035601 -0.221167,0.1152627 -0.307844,0.064174 -0.01321,-0.00779 -0.02284,-0.020475 -0.03426,-0.030713 -0.0064,-0.012306 -0.01474,-0.023764 -0.01908,-0.036919 -0.02164,-0.065626 0.006,-0.1424007 -0.0038,-0.2094484 7.56e-4,-0.1109993 -5.9e-5,-0.2219962 -3.5e-5,-0.3329968 2.31e-4,-0.1031061 -0.003,-0.2064719 0.0049,-0.3093657 0.009,-0.088784 0.03118,-0.174811 0.07172,-0.2548262 0.01211,-0.025871 0.02683,-0.050465 0.03893,-0.076339 0.0064,-0.01377 0.0094,-0.029107 0.01665,-0.042459 0.01601,-0.029413 0.04554,-0.052 0.06009,-0.082682 0.01667,-0.017366 0.0291,-0.038601 0.0464,-0.055343 0.0088,-0.0085 0.02058,-0.013228 0.0303,-0.020634 0.03547,-0.027028 0.07098,-0.052861 0.107673,-0.078439 0.202946,-0.1181591 0.405759,-0.2365462 0.608838,-0.3544772 0.01424,-0.00827 0.05735,-0.032396 0.04311,-0.02412 -0.173701,0.1009808 -0.347449,0.2018805 -0.521511,0.3022378 -0.01626,0.00937 0.03185,-0.019879 0.04809,-0.029283 0.204982,-0.1186735 0.410005,-0.237277 0.615567,-0.3549417 0.01818,-0.010408 0.03709,-0.019503 0.05563,-0.029255 0.145503,-0.070156 0.296614,-0.1327851 0.456661,-0.1601626 0.116314,-0.013744 0.233033,-0.028322 0.350412,-0.022872 0.07533,0.00301 0.155675,0.00482 0.215056,0.057307 0.04415,0.064752 0.03461,0.1160659 0.0046,0.1855032 -0.03075,0.056299 -0.06223,0.1117565 -0.09035,0.1696442 -0.03699,0.046532 -0.05266,0.1026226 -0.08167,0.1541609 -0.0164,0.025932 -0.02219,0.053866 -0.03738,0.080434 -0.02915,0.051002 -0.003,-2.283e-4 -0.03593,0.044822 -0.0059,0.00804 -0.0097,0.017374 -0.01456,0.026061 -0.02605,0.058575 -0.07388,0.1030331 -0.0972,0.1633359 -0.03874,0.048764 -0.06097,0.1093363 -0.105702,0.154169 -0.04616,0.037541 -0.07766,0.086259 -0.109096,0.1361839 -0.02477,0.056302 -0.0612,0.1056137 -0.08581,0.1620346 -0.01668,0.057519 -0.0492,0.1029432 -0.08426,0.1505547 -0.05499,0.083146 0.02597,-0.035624 -0.03178,0.037855 -0.02415,0.030727 -0.04056,0.066752 -0.06674,0.096158 -0.0579,0.051329 -0.09982,0.1162594 -0.150084,0.1745794 -0.05456,0.063212 -0.11081,0.12382 -0.167216,0.1850623 -0.05622,0.068695 -0.122274,0.1260285 -0.190972,0.1815122 -0.05211,0.059526 -0.112296,0.1116953 -0.170294,0.1652544 -0.05411,0.06539 -0.111645,0.1273032 -0.171746,0.1873093 -0.04896,0.052105 -0.0923,0.1119386 -0.128428,0.1736646 -0.02158,0.05199 -0.05893,0.09366 -0.08086,0.145694 -0.0296,0.04458 -0.0398,0.101205 -0.0584,0.150913 -0.0041,0.0086 -0.0082,0.01721 -0.01234,0.02582 -0.005,0.0078 -0.01101,0.01504 -0.01502,0.02339 -0.01929,0.04015 -0.0313,0.08361 -0.06485,0.115885 -0.03217,0.07013 -0.0524,0.145538 -0.05158,0.223185 -0.0036,0.09196 -0.0061,0.185375 -0.03252,0.274222 -0.02518,0.0761 -0.05528,0.148996 -0.101247,0.215182 -0.04611,0.06397 -0.08279,0.134804 -0.138898,0.191249 -0.05876,0.08051 -0.128539,0.151551 -0.194271,0.226147 -0.06964,0.07775 -0.129542,0.16439 -0.2068,0.235706 -0.09395,0.0892 -0.190069,0.176018 -0.292326,0.255719 -0.115225,0.08897 -0.226793,0.183519 -0.334735,0.281083 -0.08279,0.07844 -0.154829,0.166819 -0.217595,0.262139 -0.06649,0.100531 -0.142928,0.193272 -0.216984,0.288061 -0.06974,0.08384 -0.13897,0.167773 -0.199385,0.258399 -0.05163,0.08974 -0.100782,0.178839 -0.178463,0.249894 -0.05703,0.06515 -0.118393,0.125931 -0.172067,0.193984 -0.05279,0.06183 -0.08195,0.106426 -0.108774,0.183705 -0.0284,0.07514 -0.07253,0.143365 -0.09699,0.220495 -0.04607,0.09408 -0.107784,0.176816 -0.166848,0.262958 -0.06863,0.09354 -0.141379,0.183434 -0.212566,0.274906 -0.07597,0.09749 -0.147309,0.198547 -0.229624,0.291178 -0.0091,0.01077 -0.01812,0.02154 -0.02717,0.03232 -0.0092,0.0089 -0.01917,0.01712 -0.0277,0.0267 -0.03569,0.04006 -0.0627,0.08778 -0.102945,0.124109 -0.04506,0.0536 -0.08364,0.112021 -0.117921,0.172896 -0.08019,0.116115 -0.161039,0.231611 -0.252009,0.339747 -0.121465,0.132703 -0.242309,0.265824 -0.367152,0.395339 0,0 -0.620598,0.250493 -0.620598,0.250493 z"
   inkscape:connector-curvature="0" /><path
   style="fill:#00ff00"
   id="path7071"
   d="m 21.417695,16.007548 c -0.0012,0.01428 0.01201,0.220712 0.04097,0.116581 -1.232087,0.581717 -0.638321,0.405133 -0.490054,0.258565 0.02905,-0.02872 0.05421,-0.062 0.0813,-0.09256 0.03528,-0.05008 0.0871,-0.08292 0.131796,-0.123165 0.07392,-0.05372 0.131028,-0.12608 0.189823,-0.195275 0.06004,-0.07301 0.0305,-0.03711 0.08862,-0.107707 0,0 0.607194,-0.257083 0.607194,-0.257083 v 0 c -0.06085,0.06858 -0.03104,0.03278 -0.0892,0.107587 -0.05759,0.06837 -0.109138,0.142622 -0.173415,0.203684 -0.06606,0.04327 0.02518,-0.01875 -0.04066,0.03405 -0.03276,0.02627 -0.07093,0.04604 -0.100069,0.07706 -0.08079,0.102483 0.03338,-0.04 -0.05383,0.06105 -0.0055,0.0063 -0.0471,0.06253 -0.05276,0.06923 -0.157947,0.187009 -0.513117,0.214407 -0.635717,0.367614 -0.01318,-0.0065 -0.02793,-0.01049 -0.03954,-0.0195 -0.05597,-0.04341 -0.04542,-0.134391 -0.06256,-0.195388 0,0 0.598102,-0.304748 0.598102,-0.304748 z"
   inkscape:connector-curvature="0" /><path
   style="fill:#00ff00"
   id="path7073"
   d="m 23.740947,12.142575 c 0.212417,-0.138137 0.38907,-0.326258 0.560189,-0.511219 0.155104,-0.17517 0.269375,-0.377763 0.367295,-0.588643 0.005,-0.0135 0.01055,-0.02682 0.01507,-0.0405 0.0027,-0.0081 0.0046,-0.0165 0.0065,-0.02484 7.39e-4,-0.0032 -0.0016,-0.0084 0.0014,-0.0099 0.389019,-0.188364 0.685813,-0.498982 0.589305,-0.227829 -0.05624,0.112705 -0.1527,0.1954 -0.244682,0.278153 -0.146981,0.114067 -0.274623,0.247057 -0.388487,0.393629 -0.05926,0.08792 -0.124222,0.173514 -0.161657,0.273503 -0.01159,0.06517 -0.03693,0.124117 -0.06808,0.182025 -0.03608,0.06236 -0.06402,0.128612 -0.09208,0.19482 -0.005,0.01349 -0.04843,0.109821 -0.02537,0.114709 0.02104,0.0045 0.04121,-0.01245 0.06135,-0.02002 0.01618,-0.0069 0.0331,-0.01228 0.04853,-0.02072 0.01727,-0.0094 0.06639,-0.04222 0.04917,-0.03269 -0.173151,0.09579 -0.342282,0.198875 -0.517111,0.291567 -0.01642,0.0087 0.02775,-0.02485 0.04016,-0.03869 0.02795,-0.0312 0.03342,-0.0452 0.05337,-0.08063 0.02385,-0.07051 0.0741,-0.13729 -0.03967,-0.107636 -0.113481,0.02665 -0.214487,0.08681 -0.320878,0.13203 -0.077,0.03272 -0.150565,0.05939 -0.228825,0.08875 -0.144335,0.04136 -0.277165,0.125492 -0.429522,0.131049 0,0 0.532344,-0.395953 0.532344,-0.395953 v 0 c 0.139629,-0.02772 0.269163,-0.09073 0.404662,-0.13285 0.117322,-0.04552 0.110412,-0.04136 0.228019,-0.09316 0.11355,-0.05001 0.226657,-0.114187 0.353496,-0.119244 0.01849,0.0042 0.03815,0.0048 0.05548,0.01252 0.09919,0.04396 0.07627,0.128703 0.04987,0.209816 -0.124072,0.29691 -0.365836,0.322226 -0.697094,0.516373 -0.01804,0.01057 -0.03815,0.01747 -0.05823,0.02329 -0.01907,0.0055 -0.03907,0.0071 -0.05861,0.01059 -0.01944,-0.0026 -0.03999,-7.25e-4 -0.05831,-0.0077 -0.09466,-0.03607 -0.07925,-0.128362 -0.04831,-0.202124 0.02689,-0.06722 0.05116,-0.136247 0.08793,-0.198736 0.0272,-0.05674 0.06804,-0.10817 0.07399,-0.17266 0.0302,-0.113332 0.09999,-0.203761 0.164944,-0.299749 0.110383,-0.149927 0.232297,-0.29252 0.382777,-0.403901 0.08397,-0.07942 0.176707,-0.150285 0.241141,-0.248011 0.136873,-0.226526 0.762451,-0.580787 0.598172,-0.248351 -0.107851,0.218924 -0.232695,0.429394 -0.388561,0.618095 -0.159521,0.181926 -0.328083,0.356871 -0.513235,0.513118 0,0 -0.626451,0.241682 -0.626451,0.241682 z"
   inkscape:connector-curvature="0" /><path
   style="fill:#00ff00"
   id="path7075"
   d="m 21.654977,13.607922 c 0.0118,-0.0024 0.024,-0.0033 0.03538,-0.0073 0.04417,-0.01522 0.163257,-0.09096 0.122247,-0.06857 -0.158433,0.08648 -0.311746,0.18239 -0.472269,0.264931 -0.03231,0.01661 0.05833,-0.04337 0.08635,-0.06649 0.02736,-0.02257 0.05313,-0.04699 0.0797,-0.07048 0.12918,-0.125864 0.189306,-0.288021 0.221008,-0.461385 0.0033,-0.10052 0.03588,-0.191841 0.07247,-0.283976 0.05463,-0.119952 0.106383,-0.241172 0.159527,-0.361787 0.04451,-0.09484 0.07554,-0.19472 0.112242,-0.292541 0.02918,-0.08715 0.07331,-0.167802 0.110517,-0.251532 0.04856,-0.112606 0.115347,-0.215766 0.177153,-0.321249 0.0512,-0.08758 0.101601,-0.175834 0.159354,-0.259304 0.06913,-0.08629 0.152004,-0.15951 0.221502,-0.245545 0.06669,-0.09106 0.132798,-0.182579 0.203696,-0.270435 0.0618,-0.07434 0.120679,-0.150872 0.177933,-0.228737 0.05028,-0.07707 0.100135,-0.153678 0.155992,-0.226904 0.05651,-0.08123 0.116319,-0.160043 0.171954,-0.241881 0.04115,-0.05059 0.06734,-0.110116 0.09256,-0.169643 0.04228,-0.090401 0.07368,-0.1853338 0.108574,-0.2787091 0.0284,-0.076878 0.05131,-0.1558234 0.08186,-0.2318651 0.03193,-0.069889 0.06261,-0.1404184 0.09145,-0.2116443 0.0455,-0.095978 0.07781,-0.1964053 0.111023,-0.297054 0.03531,-0.113397 0.05493,-0.2305294 0.08921,-0.344212 0.0246,-0.088338 0.05301,-0.1753479 0.08692,-0.2605343 0.02596,-0.067215 0.05376,-0.1323857 0.0896,-0.1948785 0.03857,-0.070182 0.07419,-0.1418741 0.113752,-0.2115149 0.04203,-0.068847 0.08153,-0.1388539 0.120621,-0.2093851 0.03861,-0.062115 0.07659,-0.1244927 0.120043,-0.1834015 0.05459,-0.066852 0.113161,-0.1300618 0.16751,-0.1971489 0.05689,-0.063494 0.106284,-0.1333822 0.16373,-0.1962881 0.05117,-0.049684 0.0911,-0.1088198 0.137782,-0.1624062 0.03298,-0.046748 0.0654,-0.093916 0.09791,-0.1410111 0.189053,-0.2151378 0.0134,-0.080782 0.658008,-0.320271 0.0066,-0.00244 6.44e-4,0.031038 -0.0059,0.074314 -0.01444,0.086566 -0.06187,0.1525214 -0.120003,0.2153313 -0.105578,0.09936 -0.205286,0.2037961 -0.294635,0.3179891 -0.07286,0.1001773 -0.138647,0.2066077 -0.184452,0.3219737 -0.0221,0.058593 -0.04297,0.1175094 -0.06844,0.1746987 -0.01985,0.071697 -0.04182,0.1415612 -0.07027,0.2105303 -0.03824,0.085146 -0.06579,0.1743835 -0.09888,0.2615269 -0.02857,0.058685 -0.0501,0.1203215 -0.07054,0.1822 -0.01861,0.064867 -0.0509,0.1246824 -0.08111,0.1846923 -0.03779,0.064046 -0.07675,0.1273397 -0.112511,0.1925549 -0.04548,0.091721 -0.119735,0.1539845 -0.200951,0.212811 0,0 -0.609736,0.2395533 -0.609736,0.2395533 v 0 c 0.07729,-0.050071 0.154708,-0.097556 0.20113,-0.1802799 0.03751,-0.064462 0.07117,-0.1310236 0.111825,-0.1936608 0.0363,-0.052203 0.05669,-0.1132801 0.08704,-0.1689996 0.01672,-0.065608 0.03968,-0.1303398 0.06785,-0.1917892 0.04493,-0.081793 0.06258,-0.1751573 0.10207,-0.2596037 0.02688,-0.067973 0.05919,-0.1329644 0.06601,-0.2068519 0.0088,-0.027539 0.02263,-0.049163 0.03366,-0.07522 0.01403,-0.033142 0.01955,-0.070458 0.03999,-0.1011537 0.04195,-0.1241731 0.112582,-0.2351879 0.185095,-0.3436662 0.08479,-0.116541 0.179188,-0.2240507 0.283073,-0.3240607 0.05622,-0.048657 0.113151,-0.1041357 0.131556,-0.178568 0.0032,-0.00951 0.0071,-0.018788 0.0096,-0.028519 0.0019,-0.00785 -0.0036,-0.020159 0.0035,-0.024019 1.141383,-0.6196908 0.694628,-0.4462747 0.55551,-0.2517667 -0.04336,0.036688 -0.07308,0.089687 -0.101682,0.1381222 -0.04221,0.058967 -0.0938,0.1108252 -0.136435,0.1697746 -0.06217,0.058586 -0.110485,0.1271257 -0.16705,0.1909879 -0.05449,0.066295 -0.106743,0.1339473 -0.1669,0.1953826 -0.04606,0.055442 -0.08756,0.1150275 -0.121429,0.178479 -0.05007,0.062361 -0.07402,0.1419446 -0.124346,0.2049149 -0.03727,0.069632 -0.07658,0.1378542 -0.111939,0.2085336 -0.01436,0.03118 -0.03374,0.055496 -0.05051,0.084806 -0.01936,0.033814 -0.02458,0.073296 -0.04314,0.1074792 -0.03949,0.081601 -0.06896,0.1680484 -0.09229,0.2555639 -0.0014,0.0041 -0.03397,0.098727 -0.03451,0.1006744 -0.02225,0.080643 -0.03089,0.1650831 -0.05859,0.2444286 -0.02901,0.1012426 -0.05553,0.203753 -0.103435,0.2980757 -0.0259,0.073401 -0.05734,0.1445031 -0.08853,0.2156947 -0.03869,0.0719 -0.05706,0.152511 -0.08656,0.2283937 -0.03498,0.093311 -0.06966,0.1866385 -0.103406,0.2804264 -0.02832,0.062072 -0.04765,0.1284229 -0.08815,0.1843225 -0.06315,0.076941 -0.116387,0.1630191 -0.175283,0.2431411 -0.05329,0.07354 -0.109727,0.144142 -0.154131,0.223639 -0.05368,0.08221 -0.116571,0.158265 -0.178856,0.234028 -0.0699,0.08874 -0.142084,0.175687 -0.205801,0.269246 -0.06302,0.09026 -0.13887,0.167505 -0.218264,0.243381 -0.06254,0.08017 -0.113357,0.167986 -0.166609,0.254432 -0.05881,0.103998 -0.127467,0.202354 -0.175806,0.312092 -0.03507,0.08497 -0.08066,0.164202 -0.112912,0.250199 -0.03982,0.0984 -0.06791,0.200834 -0.114106,0.296731 -0.05309,0.119111 -0.105946,0.238208 -0.157517,0.35791 -0.03521,0.0894 -0.078,0.176318 -0.08237,0.274238 -0.03308,0.183471 -0.08887,0.36111 -0.213657,0.50458 -0.261209,0.248259 -0.3933,0.289007 -0.802362,0.527597 -0.06299,0.03674 -0.125661,0.05997 -0.198604,0.05131 0,0 0.549432,-0.385486 0.549432,-0.385486 z"
   inkscape:connector-curvature="0" /><path
   style="fill:#00ff00"
   id="path7077"
   d="m 21.622542,13.019601 c 0.0078,0.09612 0.03868,0.188538 0.0696,0.279324 0.03264,0.08284 0.06178,0.166133 0.08009,0.253392 0.01758,0.08331 0.01438,0.167174 0.0038,0.250944 -0.0159,0.08291 -0.03687,0.164807 -0.05907,0.246247 -0.01353,0.04671 -0.0296,0.09251 -0.04229,0.139471 0,0 -0.602397,0.289334 -0.602397,0.289334 v 0 c 0.01019,-0.04834 0.02276,-0.09601 0.04251,-0.14148 0.02081,-0.07987 0.04407,-0.158478 0.06263,-0.238846 0.01168,-0.07759 0.02294,-0.153632 0.0065,-0.231843 -0.0145,-0.08544 -0.04281,-0.16555 -0.07379,-0.246245 -0.03176,-0.09356 -0.0604,-0.189043 -0.08053,-0.285757 0,0 0.592907,-0.314541 0.592907,-0.314541 z"
   inkscape:connector-curvature="0" /><path
   style="fill:#00ff00"
   id="path7079"
   d="m 27.130777,7.0578291 c 0.05692,0.029409 0.547906,-0.3566517 0.78816,-0.4246638 0.204148,-0.097936 0.471684,-0.2548411 -0.43593,0.2557618 -0.01937,0.010894 0.03827,-0.022707 0.05627,-0.035734 0.06294,-0.045554 0.08993,-0.074079 0.148612,-0.1282795 0.165807,-0.1712986 0.306088,-0.36361 0.431895,-0.5654774 0.05566,-0.012278 0.02204,-0.07538 0.04789,-0.1030801 0.0045,-0.00484 -0.0032,0.022371 0.0028,0.019668 0.195711,-0.087472 0.385007,-0.1886912 0.57908,-0.279739 0.01238,-0.00581 -0.02384,0.014013 -0.03343,0.023754 -0.01291,0.013114 -0.02221,0.029354 -0.03331,0.044032 -0.06549,0.093987 -0.103057,0.2017262 -0.140216,0.3089145 -0.0244,0.086209 -0.05694,0.1697611 -0.09453,0.2510052 -0.0534,0.105297 -0.11464,0.2061732 -0.168532,0.311271 -0.042,0.06971 -0.05538,0.1516647 -0.09836,0.2203827 -0.05547,0.065406 -0.134328,0.108689 -0.205342,0.1556176 -0.12628,0.094724 -0.251878,0.190296 -0.378539,0.2845694 -0.05041,0.029037 -0.09054,0.077002 -0.140859,0.1059117 -0.06469,0.037166 0.138954,-0.1276576 -0.01793,-0.061925 -0.180543,0.075644 -0.344203,0.1865336 -0.516304,0.2798004 0.281202,-0.2035472 0.450641,-0.5176656 0.60959,-0.8181133 0.119634,-0.2405354 0.20946,-0.4950058 0.259321,-0.7589729 0.01821,-0.1175738 0.02739,-0.1432274 -0.0862,-0.1860637 C 27.572932,5.9064837 27.437215,5.8668407 27.298418,5.84126 27.198498,5.82625 27.098191,5.82506 26.998552,5.8086 26.927002,5.796717 26.85846,5.770283 26.789242,5.748657 26.718512,5.73222 26.651834,5.703136 26.589578,5.66613 26.526298,5.624281 26.471008,5.571781 26.407477,5.530493 26.340347,5.48788 26.262459,5.472299 26.192465,5.436365 26.160325,5.426435 26.106375,5.381712 26.06963,5.398711 c -0.008,0.00372 -0.02609,0.023549 -0.0183,0.019315 0.184866,-0.1004401 0.367081,-0.2056874 0.550621,-0.3085312 -0.07876,0.047798 -0.111928,0.1442361 -0.142425,0.2267007 -0.04004,0.10573 -0.06389,0.2150569 -0.08495,0.3257164 -0.01837,0.093636 -0.03301,0.1877456 -0.05269,0.2811359 -0.01185,0.076898 -0.02991,0.1525563 -0.04295,0.2292291 -0.0098,0.081431 -0.03553,0.1586473 -0.06258,0.2355519 -0.03139,0.1026037 -0.100948,0.1831693 -0.165913,0.2658975 -0.04691,0.054104 -0.09472,0.1070848 -0.138152,0.1640635 -0.0094,0.012376 -0.01486,0.029132 -0.02814,0.037255 -0.195557,0.1196648 -0.396941,0.229537 -0.595412,0.3443055 -0.01297,-0.026989 -0.03181,-0.051876 -0.0389,-0.080966 -0.01053,-0.04318 0.0066,-0.1398756 0.01402,-0.1782982 0.01924,-0.099673 0.04728,-0.1982195 0.07144,-0.2967916 0.03035,-0.1168092 0.05068,-0.2354613 0.05942,-0.3557514 0.0011,-0.069188 0.0037,-0.1371794 0.01453,-0.2054489 0.590407,-0.3210663 0.635348,-0.5154829 0.664968,-0.026833 0.01047,0.3224737 -0.04627,0.64155 -0.08924,0.9598536 -0.03304,0.2112868 -0.0425,0.4249086 -0.06112,0.6375747 -0.008,0.060886 -0.0038,0.031842 -0.01234,0.087162 0,0 -0.599487,0.2920704 -0.599487,0.2920704 v 0 c 0.0115,-0.055713 0.0054,-0.026666 0.01842,-0.087127 0.04112,-0.2150338 0.04702,-0.4364932 0.08944,-0.6516013 0.04492,-0.309318 0.09997,-0.6232012 0.07398,-0.9365353 -0.0056,-0.058384 -0.0076,-0.094056 -0.01793,-0.1500355 -0.0028,-0.014867 -0.0064,-0.029583 -0.01053,-0.044122 -0.0017,-0.00609 -0.0031,-0.012689 -0.0071,-0.017634 -0.0012,-0.00147 -0.0051,0.00542 -0.0034,0.0045 0.192827,-0.1072243 0.384913,-0.2157748 0.57737,-0.3236621 -0.0062,-7.784e-4 -0.01295,-0.00509 -0.01853,-0.00234 -0.03471,0.017145 -0.01737,0.1338232 -0.02399,0.1665235 -0.0096,0.126065 -0.02986,0.2506903 -0.06621,0.372058 -0.0259,0.096475 -0.05412,0.1929123 -0.07367,0.2909483 -0.0056,0.028201 -0.01085,0.056551 -0.01383,0.085152 -0.002,0.019557 0.005,0.040307 -0.0012,0.058978 -0.0018,0.00557 -0.01036,-0.0055 -0.01554,-0.00825 -0.182053,0.109641 -0.361045,0.2245336 -0.546159,0.328923 -0.01362,0.00768 0.01924,-0.024646 0.02868,-0.037108 0.03228,-0.042615 0.06238,-0.085448 0.09894,-0.1246731 0.01331,-0.014286 0.02733,-0.027905 0.04099,-0.041857 0.06166,-0.076885 0.133682,-0.1510874 0.169932,-0.2438111 0.02672,-0.073753 0.05686,-0.1462982 0.06985,-0.2240015 0.0088,-0.078714 0.02845,-0.1546993 0.04003,-0.232886 0.0199,-0.09422 0.04214,-0.1875741 0.05658,-0.282926 0.02564,-0.1116599 0.03839,-0.2260597 0.08116,-0.3333391 0.03024,-0.092441 0.06299,-0.1852096 0.118643,-0.2657996 0.496146,-0.2806726 0.449949,-0.4423126 0.770888,-0.2827655 0.0748,0.031949 0.15377,0.054688 0.220817,0.1029168 0.06015,0.042988 0.116076,0.092136 0.180237,0.1293084 0.06118,0.031048 0.124532,0.055413 0.191249,0.072103 0.06643,0.021104 0.133422,0.042579 0.202581,0.052409 0.0987,0.014493 0.199262,0.015301 0.296643,0.038981 0.141793,0.03288 0.28092,0.076402 0.41807,0.1250457 0.124945,0.06471 0.15529,0.1279917 0.123295,0.2672575 -0.06076,0.273634 -0.162781,0.5360763 -0.282046,0.7892892 -0.154113,0.2974067 -0.313185,0.6064629 -0.564192,0.8346677 -0.212127,0.1192513 -0.413037,0.2611289 -0.636381,0.3577541 -0.03829,0.016568 -0.07783,-0.059188 -0.05935,-0.088397 0.0078,-0.012265 0.08391,-0.065847 0.08992,-0.070156 0.01931,-0.01386 0.03878,-0.027489 0.05817,-0.041234 0.124155,-0.095363 0.25356,-0.1838359 0.373268,-0.2850316 0.06566,-0.048947 0.133604,-0.093981 0.204348,-0.1352637 0.01257,-0.011677 0.03157,-0.027787 0.04084,-0.042605 0.03215,-0.05137 0.033,-0.1183868 0.06912,-0.1684138 0.05526,-0.1030392 0.110248,-0.2061635 0.167606,-0.3079259 0.03834,-0.078795 0.07433,-0.1594645 0.09745,-0.2441863 0.03792,-0.111009 0.07703,-0.2223 0.135693,-0.324432 0.009,-0.016546 0.01834,-0.032929 0.02705,-0.049639 0.0073,-0.014041 0.0071,-0.03504 0.02103,-0.042593 0.204111,-0.1107825 0.41023,-0.2194778 0.624932,-0.3080055 0.01437,-0.00592 0.0196,0.026371 0.02047,0.041887 0.0017,0.030786 -0.04741,0.1101461 -0.05548,0.1251263 -0.128404,0.2034753 -0.26759,0.3990738 -0.426278,0.5802746 -0.01504,0.015153 -0.113395,0.1149901 -0.134766,0.1337949 -0.218895,0.1926057 -0.491757,0.3220835 -0.761004,0.4323247 -0.237578,0.1013201 -0.630767,0.3579945 0.365107,-0.2276477 0,0 -0.626452,0.2416821 -0.626452,0.2416821 z"
   inkscape:connector-curvature="0" /></svg>